<svg width="433" height="462" viewBox="0 0 433 462" fill="none" xmlns="http://www.w3.org/2000/svg">
<path d="M324.613 332.295C324.166 332.198 323.723 332.09 323.284 331.972L322.941 332.059L331.024 336.762C332.246 337.838 333.362 339.038 334.362 340.342C336.463 343.084 337.988 346.335 339.131 349.582L344.358 364.433C345.347 367.242 346.375 370.163 349.232 371.562C350.88 372.369 352.754 372.56 354.565 372.597C356.503 372.639 358.45 372.492 360.376 372.291C364.569 371.851 368.721 371.179 372.88 370.5C376.847 369.851 380.783 368.928 384.688 367.985L387.512 367.241C391.429 366.207 395.289 364.929 399.115 363.607C402.92 362.291 406.738 360.929 410.395 359.24C413.549 357.783 417.3 355.992 418.538 352.475C419.099 350.88 419.027 349.099 418.766 347.45L417.968 342.386C417.506 339.459 417.044 336.533 416.582 333.606C416.512 333.159 416.434 332.71 416.357 332.261L416.341 332.17C416.164 331.151 415.987 330.13 415.881 329.107C415.466 325.122 415.322 321.115 416.382 317.21C416.581 316.476 416.81 315.752 417.07 315.04L421.962 307.043L421.411 307.182C419.5 308.974 417.307 310.475 414.964 311.614M324.613 332.295C328.475 333.132 332.453 332.953 336.281 332.052L409.969 313.437C411.688 312.972 413.36 312.393 414.964 311.614M324.613 332.295C320.678 331.442 317.044 329.753 313.858 327.291C310.762 324.897 308.238 321.725 306.53 318.209C305.75 316.606 305.172 314.932 304.706 313.214L280.948 219.168C280.05 215.338 279.866 211.363 280.705 207.5C281.56 203.565 283.247 199.933 285.709 196.746C288.102 193.649 291.277 191.125 294.792 189.417M414.964 311.614C418.478 309.905 421.656 307.382 424.047 304.285C426.507 301.096 428.196 297.466 429.051 293.531C429.889 289.667 429.705 285.692 428.807 281.862L427.602 277.09L427.853 277.025M294.792 189.417C292.74 190.414 290.804 191.689 289.072 193.194L293.095 186.617C293.658 185.09 294.07 183.504 294.33 181.882C294.877 178.472 294.675 174.887 294.139 171.487L291.685 155.932C291.221 152.992 290.738 149.934 292.589 147.346C293.657 145.852 295.214 144.798 296.79 143.901C298.474 142.944 300.258 142.147 302.049 141.411C305.95 139.81 309.921 138.426 313.903 137.049C317.702 135.735 321.605 134.68 325.489 133.654C326.123 133.501 326.757 133.348 327.391 133.195L328.328 132.969C332.265 132.018 336.269 131.307 340.264 130.654C344.238 130.005 348.244 129.394 352.265 129.141C355.73 128.923 359.886 128.719 362.643 131.226C363.895 132.364 364.677 133.964 365.231 135.539L367.439 141.812M294.792 189.417C296.396 188.637 298.068 188.06 299.787 187.594L373.475 168.978C377.306 168.081 381.279 167.898 385.142 168.736M385.142 168.736C385.506 168.814 385.867 168.9 386.225 168.993L379.132 164.866C378.564 164.364 378.019 163.836 377.495 163.284C374.71 160.347 372.932 156.758 371.404 153.052C371.012 152.102 370.683 151.119 370.354 150.139C370.2 149.677 370.045 149.217 369.884 148.76M385.142 168.736C389.078 169.589 392.709 171.278 395.897 173.739C398.994 176.131 401.518 179.306 403.225 182.821C404.005 184.426 404.582 186.098 405.048 187.817L406.931 195.266L407.182 195.202M369.884 148.76C369.28 147.043 368.675 145.325 368.071 143.608L367.439 141.812M369.884 148.76L367.439 141.812M407.182 195.202C405.694 198.784 405.525 202.711 406.182 206.504C406.34 207.415 406.535 208.314 406.749 209.215C407.763 212.996 409.244 216.673 411.918 219.601C412.493 220.232 413.123 220.804 413.786 221.343M407.182 195.202L410.543 194.353M407.182 195.202L409.839 194.531M413.786 221.343L413.534 221.406L417.224 236.012L417.476 235.948M413.786 221.343L417.147 220.494M413.786 221.343L416.443 220.672M417.476 235.948C417.094 237.847 417.397 239.902 417.637 241.8C417.887 243.773 418.263 245.73 418.66 247.677C419.296 250.787 420.067 253.869 420.797 256.958C421.857 260.892 422.85 264.845 424.137 268.712C424.637 270.215 425.154 271.706 425.763 273.169C426.261 274.366 426.802 275.617 427.579 276.673C427.665 276.79 427.754 276.905 427.847 277.018M417.476 235.948L417.854 235.844C418.398 235.709 418.98 235.927 419.297 236.391C419.638 236.888 419.704 237.662 419.847 238.228M427.853 277.025C427.851 277.023 427.849 277.02 427.847 277.018M427.853 277.025L427.847 277.018M427.847 277.018C428.505 276.841 429.113 276.596 429.234 275.821C429.322 275.248 429.026 274.561 428.889 274.02M416.443 220.672L409.839 194.531M416.443 220.672L417.147 220.494M409.839 194.531L410.543 194.353M410.543 194.353C412.288 193.921 414.062 194.997 414.519 196.726L419.519 216.518C419.938 218.256 418.887 220.046 417.147 220.494M428.889 274.02C427.765 269.57 426.641 265.121 425.517 260.671M428.889 274.02L425.517 260.671M425.517 260.671C424.09 255.022 422.663 249.374 421.236 243.727M425.517 260.671L421.236 243.727M421.236 243.727C420.773 241.894 420.31 240.06 419.847 238.228M421.236 243.727L419.847 238.228" stroke="black" stroke-width="1.5" stroke-miterlimit="10" stroke-linecap="round" stroke-linejoin="round"/>
<mask id="mask0_85_18788" style="mask-type:alpha" maskUnits="userSpaceOnUse" x="286" y="174" width="138" height="153">
<path d="M335.013 326.127C331.207 327.02 327.343 326.904 323.62 325.688C320.031 324.514 316.728 322.225 314.372 319.275C312.517 316.953 311.232 314.339 310.455 311.474" fill="#C4C4C4"/>
<path d="M286.819 217.913C285.926 214.107 286.042 210.243 287.259 206.52C288.432 202.93 290.721 199.629 293.671 197.271C295.993 195.416 298.608 194.13 301.472 193.355" fill="#C4C4C4"/>
<path d="M374.796 175.118C378.601 174.225 382.467 174.341 386.189 175.558C389.779 176.732 393.081 179.019 395.438 181.971C397.293 184.292 398.578 186.906 399.354 189.771" fill="#C4C4C4"/>
<path d="M422.99 283.332C423.883 287.137 423.769 291.004 422.551 294.726C421.375 298.315 419.089 301.616 416.138 303.974C413.817 305.829 411.092 306.855 408.228 307.631" fill="#C4C4C4"/>
<path d="M335.013 326.127C331.207 327.02 327.343 326.904 323.62 325.688C320.031 324.514 316.728 322.225 314.372 319.275C312.517 316.953 311.232 314.339 310.455 311.474L286.819 217.913C285.926 214.107 286.042 210.243 287.259 206.52C288.432 202.93 290.721 199.629 293.671 197.271C295.993 195.416 298.608 194.13 301.472 193.355L374.796 175.118C378.601 174.225 382.467 174.341 386.189 175.558C389.779 176.732 393.081 179.019 395.438 181.971C397.293 184.292 398.578 186.906 399.354 189.771L422.99 283.332C423.883 287.137 423.769 291.004 422.551 294.726C421.375 298.315 419.089 301.616 416.138 303.974C413.817 305.829 411.092 306.855 408.228 307.631L335.013 326.127Z" fill="#C4C4C4"/>
</mask>
<g mask="url(#mask0_85_18788)">
<rect x="281.866" y="198.308" width="116" height="137" rx="2" transform="matrix(0.969539 -0.244935 0.244936 0.96954 -39.9869 75.0793)" fill="#E7ECED"/>
<mask id="mask1_85_18788" style="mask-type:alpha" maskUnits="userSpaceOnUse" x="232" y="120" width="298" height="445">
<path d="M270.558 158.606C265.211 160.248 259.865 161.891 254.518 163.533C252.141 164.263 249.764 164.992 247.387 165.723C245.734 166.231 244.149 166.897 242.665 167.788C239.12 169.915 236.284 173.147 234.635 176.931C232.986 180.716 232.552 184.987 233.413 189.021C233.628 190.033 233.944 191.015 234.247 192.003C234.713 193.52 235.179 195.036 235.645 196.553C236.419 199.074 237.193 201.596 237.968 204.117C239.025 207.557 240.081 210.998 241.138 214.438C242.446 218.696 243.753 222.954 245.061 227.211C246.585 232.174 248.11 237.137 249.634 242.1C251.349 247.683 253.064 253.267 254.778 258.85C256.66 264.975 258.541 271.1 260.422 277.225C262.436 283.78 264.449 290.335 266.462 296.891C268.572 303.76 270.682 310.629 272.792 317.498C274.974 324.603 277.156 331.708 279.339 338.813C281.576 346.098 283.814 353.384 286.051 360.669C288.29 367.957 290.528 375.246 292.767 382.534C294.989 389.769 297.212 397.005 299.434 404.24C301.61 411.327 303.787 418.414 305.964 425.5C308.076 432.379 310.189 439.258 312.302 446.138C314.298 452.637 316.294 459.136 318.29 465.634C320.152 471.696 322.014 477.757 323.876 483.819C325.574 489.348 327.272 494.876 328.97 500.404C330.482 505.329 331.995 510.253 333.507 515.178C334.788 519.347 336.069 523.517 337.349 527.686C338.377 531.034 339.406 534.382 340.434 537.73C341.182 540.165 341.93 542.601 342.678 545.036C343.113 546.452 343.548 547.868 343.983 549.284C344.377 550.568 344.79 551.837 345.374 553.054C347.151 556.754 350.077 559.855 353.671 561.847C357.281 563.848 361.493 564.689 365.6 564.223C367.566 563.999 369.419 563.409 371.298 562.832C374.366 561.89 377.434 560.948 380.503 560.005C385.496 558.471 390.49 556.938 395.484 555.404C401.84 553.452 408.195 551.5 414.551 549.548C421.668 547.362 428.786 545.176 435.903 542.99C443.174 540.756 450.445 538.523 457.716 536.29C464.576 534.183 471.437 532.076 478.297 529.969C484.192 528.158 490.088 526.347 495.983 524.536C500.262 523.222 504.541 521.908 508.82 520.594C510.936 519.944 513.05 519.294 515.166 518.645C518.071 517.752 520.746 516.339 523.017 514.307C526.108 511.542 528.281 507.823 529.183 503.783C529.938 500.402 529.771 496.881 528.768 493.573C528.535 492.807 528.298 492.043 528.063 491.279C527.5 489.444 526.936 487.608 526.372 485.772C525.503 482.943 524.634 480.114 523.765 477.285C522.631 473.591 521.496 469.896 520.361 466.202C518.986 461.724 517.611 457.248 516.236 452.77C514.645 447.591 513.054 442.412 511.464 437.233C509.691 431.461 507.918 425.688 506.145 419.915C504.224 413.663 502.304 407.412 500.384 401.16C498.342 394.511 496.299 387.861 494.257 381.212C492.116 374.24 489.975 367.268 487.833 360.296C485.628 353.118 483.424 345.939 481.219 338.76C478.986 331.492 476.754 324.223 474.521 316.955C472.285 309.673 470.048 302.39 467.811 295.108C465.588 287.869 463.364 280.629 461.14 273.389C458.984 266.369 456.828 259.348 454.672 252.328C452.6 245.582 450.528 238.836 448.456 232.091C446.498 225.716 444.54 219.342 442.582 212.967C440.758 207.027 438.934 201.088 437.11 195.148C435.469 189.807 433.828 184.465 432.188 179.123C430.749 174.44 429.311 169.758 427.873 165.076C426.667 161.148 425.461 157.221 424.254 153.294C423.305 150.203 422.356 147.112 421.407 144.022C420.754 141.899 420.102 139.775 419.45 137.652C419.119 136.573 418.787 135.494 418.456 134.414C417.754 132.129 416.739 129.979 415.311 128.053C412.846 124.727 409.348 122.221 405.401 120.952C401.514 119.702 397.31 119.694 393.403 120.875C388.013 122.505 382.636 124.182 377.252 125.835C374.894 126.56 372.536 127.281 370.178 128.008C369.291 128.282 368.512 128.72 368.164 129.631C367.596 131.116 368.27 132.908 368.372 134.418C368.51 136.473 368.34 138.606 367.502 140.513C366.114 143.669 363.001 144.847 359.868 145.809C354.151 147.565 348.435 149.32 342.719 151.076C336.917 152.858 331.115 154.64 325.313 156.422C322.368 157.327 319.422 158.232 316.476 159.136C309.56 161.26 302.645 163.385 295.729 165.509C293.385 166.229 291.041 166.948 288.697 167.668C287.4 168.067 286.349 168.735 284.985 168.833C280.8 169.134 277.579 166.586 275.521 163.148C274.38 161.24 273.532 157.689 270.558 158.606Z" fill="#C4C4C4"/>
</mask>
<g mask="url(#mask1_85_18788)">
<rect x="228" y="171.666" width="193" height="416" rx="2" transform="matrix(0.955927 -0.293603 0.293605 0.955927 -40.3532 74.5073)" fill="#E7ECED"/>
<path fill-rule="evenodd" clip-rule="evenodd" d="M436.874 416.756C437.211 417.412 437.636 418.106 438.048 418.719C437.251 420.086 436.1 421.942 435.276 423.28C434.447 416.157 429.314 410.821 425.436 404.961C425.928 403.748 428.336 401.968 427.937 400.891C426.573 396.871 424.976 392.405 423.086 387.424C417.068 371.9 410.864 355.691 409.867 338.692C409.615 336.885 409.464 334.952 411.783 334.252C426.434 359.715 428.679 388.897 436.649 416.441L436.5 416.677L436.874 416.756ZM510.835 638.449C516.491 636.848 521.399 634.346 525.841 630.837C527.149 629.914 528.773 628.767 528.733 627.667C528.349 624.734 527.278 622.047 526.145 619.203C524.241 614.313 523.181 610.393 520.292 605.365C517.418 600.75 515.068 597.173 515.011 591.575C514.686 589.996 513.031 588.765 511.822 587.544C510.093 585.752 508.896 583.716 507.385 581.805C509.061 580.997 510.774 580.054 512.319 579.05L512.893 579.994C513.02 580.201 513.224 580.267 513.501 580.188C513.673 580.14 514.087 579.933 514.048 579.548C512.66 575.666 511.16 571.838 509.616 567.932C494.442 530.394 479.037 500.27 459.337 471.455C454.659 464.725 449.84 457.705 447.525 449.608C448.894 448.882 450.467 448.242 452.011 448.027C461.902 442.571 453.458 420.752 451.136 414.164C451.819 413.728 452.565 413.174 453.064 412.573L453.349 412.624C456.462 383.534 439.911 341.588 429.281 313.248C424.747 303.263 421.626 283.79 410.923 281.255C402.711 280.725 394.86 281.344 386.567 281.81C384.888 281.389 382.972 281.421 381.208 281.341L381.709 279.934C382.364 278.085 381.363 275.106 379.634 274.45C378.771 274.748 377.787 275.979 377.066 276.631C375.152 274.477 373.295 272.182 371.644 269.409L371.385 269.594C368.137 261.348 356.723 262.983 351.328 267.575C345.615 273.21 351.523 280.62 350.167 287.563L348.63 286.391C346.899 286.847 343.897 290.138 343.26 291.235C342.715 291.706 343.728 293.548 343.862 294.367C335.367 298.997 323.102 303.083 323.106 314.096C323.739 334.63 329.984 354.094 329.952 374.743C328.639 391.845 325.634 413.167 329.583 427.37C330.174 430.074 334.077 445.209 336.104 443.981L337.966 445.019C336.884 448.737 339.792 453.018 341.609 456.542C345.723 463.946 351.792 471.461 358.502 465.452C379.994 509.362 414.278 550.086 420.625 599.859C420.618 600.163 420.879 600.419 421.144 600.213L421.451 599.949C422.444 599.973 423.631 599.743 424.646 599.687C424.697 602.961 425.113 606.089 425.646 609.576C425.222 610.025 425.689 610.764 425.801 611.259C418.077 613.054 416.066 622.25 411.846 628.191C409.15 632.435 405.91 636.667 402.214 640.77C399.097 643.936 396.647 647.244 398.343 651.076C398.287 651.084 397.09 651.232 397.033 651.243C396.935 657.489 402.949 657.07 408.991 656.108C423.683 653.497 434.995 646.859 449.828 636.153C451.924 635.819 452.65 632.353 452.34 630.23C452.218 628.783 451.063 627.604 451.225 625.964C452.017 621.158 449.874 609.638 445.635 605.398C444.325 604.536 442.76 603.841 442.366 601.825C441.853 599.838 441.479 597.813 440.763 595.922C444.05 594.637 447.189 592.96 449.802 590.943C450.381 590.996 450.904 590.581 450.755 589.916C448.763 580.732 446.646 570.679 444.174 561.399C439.156 541.101 429.001 522.784 419.959 504.281C417.942 498.095 415.076 492.379 412.938 486.223C410.865 480.399 409.149 474.608 407.129 468.778L409.034 467.762C438.198 506.452 463.718 546.212 485.014 586.16C484.856 586.398 484.319 586.767 484.447 587.123C484.509 587.315 484.508 587.329 484.646 587.311C487.004 587.127 489.305 586.831 491.588 586.46C492.47 591.948 497.535 597.145 496.002 602.954C495.56 604.374 495.598 604.634 496.31 605.323C494.286 614.523 493.512 621.921 493.813 629.548L492.438 628.923C491.161 630.548 491.753 632.766 492.38 635.11C492.879 636.437 492.62 638.05 493.96 638.906C497.218 641.074 506.063 639.784 510.835 638.449V638.449Z" fill="white"/>
<path fill-rule="evenodd" clip-rule="evenodd" d="M371.982 267.932C371.082 269.211 374.239 275.704 375.577 276.832C370.368 282.746 365.065 288.584 359.558 294.21L358.987 294.791L359.006 294.779C358.768 294.979 358.337 295.219 358.051 295.242L357.847 295.233C357.806 295.231 357.782 295.232 357.795 295.238C357.669 295.21 357.545 295.179 357.421 295.138C355.061 293.957 352.874 291.443 350.766 289.603C352.64 286.687 350.175 282.738 349.241 279.828C348.765 279.95 349.135 281.467 349.123 281.941L349.165 282.378C349.26 283.401 349.335 284.451 349.22 285.46C347.75 284.395 343.194 289.186 342.464 290.519C341.549 291.549 342.251 292.72 342.581 293.83C332.766 298.798 319.922 303.975 322.226 317.425C322.568 324.893 323.71 332.269 324.921 339.636L325.112 340.813C327.173 353.495 329.437 366.286 328.763 379.18L328.268 383.268C327.203 392.132 326.237 401.038 326.485 409.977C325.854 414.001 331.114 449.203 336.938 444.722C335.732 449.026 338.781 453.375 340.671 457.076C344.111 463.053 350.317 472.657 358.115 467.096C374.579 500.249 397.097 530.303 410.467 564.99C414.811 576.264 418.109 587.986 419.562 600.002C419.628 601.164 420.945 601.834 421.876 601.053C422.455 601.054 423.035 600.939 423.614 600.888C423.703 603.615 424.086 606.38 424.487 609.078L424.532 609.378L424.531 609.38C424.351 609.746 424.327 610.152 424.457 610.566C420.497 611.704 417.906 615.206 416.036 618.676C412.816 624.773 409.277 630.718 404.863 636.037C401.845 640.342 395.492 644.164 396.954 650.162C394.855 650.39 396.576 654.636 397.259 655.692C398.042 656.871 399.463 657.275 400.786 657.525C419.041 658.393 435.859 647.743 450.007 637.245C452.889 636.826 453.831 632.583 453.44 630.073C453.363 628.648 452.284 627.547 452.328 626.125L452.363 625.728C452.49 624.274 452.598 622.858 452.488 621.388L452.448 621.086C451.763 616.093 450.003 607.808 446.295 604.52C442.569 602.798 443.422 599.893 442.15 596.552C445.014 595.375 447.75 593.876 450.217 592.024C451.374 591.948 452.076 590.792 451.848 589.712L451.474 587.987C449.533 579.007 447.612 570.01 445.251 561.129C440.25 540.876 430.147 522.533 421.019 503.953C418.527 496.5 414.973 489.45 412.625 481.935C411.18 477.416 409.702 472.919 408.183 468.43C436.25 505.66 461.741 544.882 483.716 586.019C483.007 586.865 483.372 588.519 484.754 588.41C486.775 588.25 488.79 588.016 490.791 587.704C491.816 592.5 496.418 598.075 494.957 602.801L494.899 602.989C494.624 603.894 494.39 604.904 495.145 605.65C493.57 612.932 492.522 620.363 492.701 627.842C490.41 627.581 490.424 632.088 490.912 633.579C491.604 635.52 491.484 639.155 493.571 640.025C504.154 643.262 516.047 638.925 524.893 632.964C526.482 631.675 528.405 630.559 529.604 628.879C530.104 627.966 529.724 626.806 529.518 625.863L529.4 625.378C528.735 622.683 527.956 619.967 526.481 617.545C525.597 613.682 523.936 609.984 522.133 606.471C520.802 603.599 518.613 601.133 517.568 598.151C515.819 595.713 516.865 592.673 515.621 590.094C514.765 588.55 513.147 587.465 512.007 586.124L511.927 586.027C510.894 584.807 510.027 583.485 509.069 582.204C510.067 581.704 511.039 581.161 511.982 580.572C512.978 582.215 515.679 580.906 515.08 579.113C504.442 550.477 491.544 522.657 476.282 496.19C468.153 480.282 455.044 467.017 448.864 450.183C449.847 449.694 451.016 449.309 452.067 449.138L452.192 449.118C452.865 449.015 453.522 448.952 454.126 448.426C461.504 440.361 455.783 423.678 452.476 414.597C452.842 414.347 453.18 414.071 453.472 413.763C453.849 413.906 454.324 413.786 454.385 413.308C454.537 412.101 454.828 410.882 454.916 409.674C455.17 371.065 437.899 335.351 425.508 299.58C422.578 292.34 419.697 282.199 411.116 280.183C408.294 279.709 405.343 279.998 402.498 280.069C395.898 279.977 389.312 280.965 382.759 280.311C383.59 278.015 382.476 275.327 380.79 273.733C379.492 272.609 378.052 274.158 377.143 275.05C375.183 272.863 373.564 270.398 371.982 267.932ZM492.786 629.577L492.804 629.848C492.901 631.297 493.057 632.804 493.596 634.153C490.808 639.006 508.705 634.449 510.663 633.885C515.135 632.567 527.898 627.334 527.016 621.737L527.046 621.869C527.446 623.615 528.649 626.747 528.074 628.285C522.046 633.971 514.231 637.759 506.059 639.095L505.764 639.138C502.486 639.598 496.132 640.018 493.829 637.827C493.479 635.278 491.639 632.007 492.786 629.577ZM498.688 601.64C501.681 595.696 509.769 597.129 515.079 598.465C515.837 600.482 517.498 600.832 518.171 602.982C521.019 609.324 525.38 616.17 524.336 623.369C517.117 630.342 506.907 632.902 497.142 633.548C496.812 633.302 496.481 633.294 496.012 633.298C495.189 631.437 495.19 629.331 495.023 627.345C494.822 623.128 494.913 618.907 494.861 614.687C496.412 612.921 496.375 610.147 496.814 607.922C496.929 607.301 497.049 606.677 497.184 606.055C498.586 605.11 498.467 603.148 498.688 601.64ZM451.629 629.03C453.442 633.655 449.344 636.865 445.92 639.069C442.128 641.765 438.16 644.235 434.119 646.544C425.868 651.362 416.872 654.998 407.339 656.145L407.172 656.162C404.408 656.444 399.534 657.223 398.07 654.342L398.044 654.274C397.862 653.785 397.251 651.925 397.302 651.39C397.371 651.37 397.434 651.335 397.49 651.285C398.944 653.511 402.145 654.208 404.932 653.832C406.555 654.744 408.749 653.614 410.454 653.209C421.539 649.948 431.25 643.475 440.876 637.288C443.897 635.172 450.341 632.443 451.629 629.03ZM443.734 604.817C445.471 603.59 447.37 608.895 447.991 610.146C450.195 615.555 452.649 624.269 449.255 629.51C445.114 632.867 440.289 635.236 435.878 638.204L434.823 638.868C426.373 644.18 417.618 649.389 407.833 651.733C406.689 650.478 402.402 653.005 399.897 650.902C396.356 647.439 401.584 643.08 403.916 640.516C408.363 635.482 412.29 629.981 415.577 624.121C417.122 621.367 418.397 618.353 420.437 615.913L420.543 615.787C422.302 613.735 424.83 612.055 427.642 612.278C430.38 612.494 432.092 615.069 434.585 615.944C440.067 617.636 443.464 611.543 443.751 606.82L443.758 606.677C443.775 606.528 443.604 606.489 443.503 606.556C443.502 606.511 443.497 606.465 443.494 606.421C444.035 606.102 443.884 605.358 443.734 604.817ZM508.552 582.46C508.917 586.054 511.491 588.641 513.621 591.309C514.532 593.219 513.819 595.499 514.689 597.459C509.599 595.367 502.476 594.252 498.3 598.664C497.455 595.786 495.669 593.267 494.034 590.783L493.377 589.8C492.866 589.037 492.352 588.278 491.81 587.539C497.569 586.538 503.248 584.992 508.552 582.46ZM425.22 600.686C430.307 599.974 435.365 598.96 440.216 597.291L442.067 605.957V605.957C442.143 606.312 442.359 606.512 442.616 606.588C442.673 609.558 441.082 612.666 438.416 614.068C434.196 615.876 431.959 610.229 427.935 610.208C428.193 608.405 427.086 606.444 426.662 604.681C426.234 603.32 425.779 601.982 425.22 600.686ZM443.52 603.816C443.67 603.985 443.833 604.135 444.004 604.277C443.879 604.325 443.765 604.4 443.668 604.503C443.618 604.276 443.569 604.046 443.52 603.816ZM438.487 418.001C443.192 418.273 447.953 417.252 452.047 414.873C453.137 422.41 457.04 439.888 452.061 445.831C450.976 445.976 449.909 446.199 448.886 446.602C448.278 446.842 447.687 447.119 447.093 447.391C446.869 447.49 446.412 447.646 446.109 447.709L446.057 447.719C446.137 447.702 446.198 447.684 446.114 447.702L445.986 447.731L445.92 447.744C443.727 448.158 440.94 445.681 439.235 447.732C438.791 447.349 438.236 447.18 437.756 446.863C435.353 444.503 436.032 440.396 434.118 437.733C434.366 437.063 433.997 436.27 433.225 435.976C431.975 435.344 430.07 436.618 429.127 435.47C429.187 435.53 429.166 435.447 429.139 435.408L429.133 435.401L429.21 435.289C432.563 430.413 435.651 425.153 437.095 419.299L437.143 419.101C437.843 419.479 438.631 418.816 438.487 418.001ZM337.712 443.899C341.198 444.696 344.787 444.973 348.354 444.711C350.927 451.151 353.604 457.564 356.555 463.839L356.311 463.958C354.884 464.66 353.403 465.481 351.809 464.811C346.346 461.858 342.429 453.918 339.144 448.736L339.005 448.497C338.258 447.21 337.309 445.405 337.712 443.899ZM342.722 294.292C343.81 296.417 348.281 321.646 351.615 316.169C353.312 310.489 355.537 304.993 357.317 299.344C358.231 300.924 357.543 303.305 358.548 304.579C361.907 346.793 367.627 389.003 377.021 430.314C374.202 433.787 371.965 437.662 369.801 441.56C369.085 442.63 368.772 444.137 367.732 444.93C361.452 440.895 354.638 437.786 348.181 434.055C348.127 433.689 348.08 433.323 348.041 432.954C347.875 431.421 345.787 431.213 345.316 432.315C342.708 428.892 341.283 424.402 340.486 420.162C339.254 413.003 339.963 405.629 339.915 398.407C339.442 376.407 337.041 353.867 329.284 333.152C329.202 332.962 328.94 333.033 328.974 333.239C333.875 356.058 337.984 379.168 337.358 402.614L337.348 403.191C337.186 412.642 336.549 422.791 341.387 431.283C341.548 432.565 342.485 433.623 343.625 434.254C344.294 435.102 345.005 435.928 345.783 436.675C346.191 438.805 346.869 440.864 347.639 442.881C343.97 443.12 340.341 442.617 336.771 441.782C336.292 440.791 335.835 439.791 335.413 438.776C327.497 419.976 329.434 398.963 331.732 379.209C332.857 356.628 325.159 334.65 325.072 312.154C326.45 302.982 336.327 299.492 342.722 294.292ZM381.772 281.594L382.035 281.61C383.879 281.726 385.755 281.935 387.562 281.477C393.719 281.757 399.896 281.561 406.059 281.504L406.655 281.499C409.287 281.479 411.97 281.548 414.199 283.134C416.337 284.655 417.716 287.003 418.918 289.277C427.332 309.745 434.757 330.723 442.017 351.654C447.64 369.2 452.402 387.311 452.764 405.834C452.795 408.377 452.69 410.967 453.102 413.472C452.775 413.569 452.451 413.685 452.128 413.812C452.079 413.655 451.845 413.75 451.907 413.9C447.708 415.84 443.023 416.724 438.415 416.186C430.638 384.86 427.713 349.297 404.553 324.755C404.461 324.663 404.296 324.791 404.372 324.9L405.045 325.864C407.21 328.967 409.349 332.084 411.191 335.396C409.949 335.557 409.872 338.598 409.84 339.347C408.939 360.949 418.918 380.899 425.497 400.958C416.612 412.277 407.58 423.494 398.076 434.3C391.818 432.36 385.808 429.194 379.496 427.615C369.167 385.252 365.957 341.35 358.868 298.628C361.198 300.283 363.553 301.905 365.906 303.527C368.944 305.657 371.928 307.881 374.943 310.048C375.567 310.498 376.504 309.989 376.666 309.311C378.799 300.153 379.104 290.62 381.772 281.594ZM411.357 335.69C425.355 360.471 427.756 389.396 435.485 416.281C435.125 416.842 435.532 417.598 436.175 417.731C436.363 418.079 436.565 418.419 436.784 418.755C436.454 419.311 436.121 419.865 435.783 420.415C434.471 414.458 430.016 409.97 426.75 404.953C427.667 403.509 429.774 402.178 428.901 400.264C427.43 395.98 425.894 391.717 424.297 387.48L423.381 385.114C417.583 370.111 411.93 354.797 410.976 338.606L410.964 338.485C410.884 337.787 410.618 336.046 411.357 335.69ZM337.376 443.823L337.437 443.837L337.348 443.969C337.36 443.922 337.369 443.872 337.376 443.823ZM373.432 423.81C374.513 421.918 371.543 420.244 370.491 422.166C369.413 424.061 372.385 425.733 373.432 423.81ZM369.471 406.071C369.555 405.109 368.245 403.992 367.436 404.845L367.411 404.872L367.393 404.858C366.626 405.663 367.285 406.694 368.016 407.212C368.79 407.66 369.328 406.715 369.471 406.071ZM365.178 385.572C366.814 381.421 360.948 381.57 363.035 385.519C363.449 386.25 365.349 386.95 365.178 385.572ZM363.639 365.461C364.542 363.38 361.159 362.767 361.109 364.961C361.135 366.408 363.048 366.762 363.639 365.461ZM337.932 327.451C337.149 327.81 332.773 328.136 334.326 329.558C335.02 338.353 333.218 349.834 341.961 355.213L342.038 355.254C343.302 355.96 345.542 357.856 346.777 356.463C349.323 352.688 353.064 349.446 354.598 345.104C354.869 341.961 353.054 339.05 352.498 336.001C351.555 332.211 351.125 328.314 350.197 324.527C350.151 324.343 349.938 324.34 349.836 324.452C345.822 325.252 341.895 326.44 337.932 327.451ZM349.778 324.753C349.642 331.042 351.355 337.24 353.102 343.224C353.249 343.85 353.311 344.483 353.122 345.047C351.432 348.762 348.347 351.665 346.039 355.008C344.593 354.556 343.338 353.81 342.145 352.899C334.883 347.464 337.208 337.373 335.013 329.651L335.692 329.46C340.448 328.119 345.229 326.697 349.778 324.753ZM359.864 345.11L359.818 345.123C357.998 345.644 359.291 348.614 360.891 347.704C362.242 346.95 361.367 344.704 359.864 345.11V345.11ZM358.968 328.328C359.62 325.818 355.219 326.166 356.362 328.527L356.324 328.428C356.316 328.409 356.31 328.392 356.303 328.377L356.401 328.601V328.601C356.864 329.657 359.256 329.831 358.968 328.328ZM356.712 309.712C355.468 309.733 355.075 311.602 356.275 312.05C358.066 312.746 358.55 309.609 356.712 309.712ZM377.945 276.459L378.049 276.288C379.166 274.472 380.102 273.457 381.238 276.191C381.863 277.505 382.156 279.301 381.065 280.492C376.513 288.545 376.649 298.163 374.755 307.018C369.809 303.6 365.067 299.926 360.217 296.382C364.274 292.001 368.385 287.629 372.339 283.137C374.215 280.943 376.306 278.837 377.945 276.459ZM347.144 289.175C349.928 291.744 352.638 294.609 355.843 296.672C356.241 296.895 356.632 297.051 357.017 297.145C356.503 297.142 355.976 297.676 356.183 298.18C353.65 302.704 351.925 307.622 350.342 312.551C347.87 305.839 346.922 298.665 344.586 291.903C345.248 290.824 346.156 289.957 347.144 289.175Z" fill="black"/>
<path fill-rule="evenodd" clip-rule="evenodd" d="M315.993 235.885C315.535 234.074 317.935 232.588 319.194 234.153C319.254 234.188 319.318 234.219 319.377 234.247C319.084 234.111 319.672 234.306 319.765 234.325C319.843 234.341 319.923 234.353 320.002 234.366C319.197 229.677 319.454 224.302 323.064 220.811C328.185 216.247 334.886 213.74 341.481 212.18C344.837 211.441 348.797 210.889 351.255 208.387C352.021 207.608 352.521 206.581 353.462 205.967C356.471 204.161 358.898 207.091 359.235 209.971C360.628 209.588 362.225 209.967 363.184 211.065C363.749 211.716 363.972 212.527 364.49 213.194C365.963 214.84 367.685 215.835 367.588 218.364C369.342 219.499 369.233 221.999 368.573 223.748C368.258 224.649 367.833 225.55 367.685 226.501C367.537 227.413 368.375 228.208 368.907 228.883C372.81 233.759 374.405 239.894 374.786 246.026C377.616 246.406 379.341 249.612 378.308 252.231C377.959 253.152 377.349 253.63 376.7 254.32C375.864 255.146 377.292 257.1 377.274 258.245C377.573 260.941 375.679 263.191 372.89 262.175C371.357 262.369 371.384 266.984 370.621 268.361C370.209 269.413 369.699 270.397 369.109 271.339C368.47 278.099 357.227 284.621 351.135 285.966C344.675 287.087 338.931 282.954 334.066 279.221C331.541 277.212 329.565 274.723 328.264 271.766C326.957 268.794 326.267 265.642 325.68 262.462C324.426 255.708 322.702 245.954 321.439 239.125C319.138 239.577 316.585 238.232 315.993 235.885V235.885Z" fill="white"/>
<path fill-rule="evenodd" clip-rule="evenodd" d="M363.879 218.04C363.884 218.048 363.883 218.056 363.883 218.067C363.882 218.064 363.881 218.063 363.88 218.06C363.879 218.052 363.879 218.046 363.879 218.04" fill="#4F66AF"/>
<path fill-rule="evenodd" clip-rule="evenodd" d="M363.907 218.135C363.913 218.124 363.923 218.115 363.932 218.103C363.932 218.103 363.933 218.103 363.933 218.103C363.924 218.114 363.916 218.125 363.907 218.135" fill="#4F66AF"/>
<path fill-rule="evenodd" clip-rule="evenodd" d="M316.593 236.634C315.68 236.229 314.677 237.124 315.214 238.064C315.798 239.088 317.19 239.506 318.292 239.682C319.425 239.864 320.427 239.677 321.505 239.317L321.518 239.31V239.31C321.559 240.613 321.746 241.928 321.861 243.218C322.007 244.856 322.158 246.493 322.313 248.129C322.463 249.711 322.541 251.316 322.757 252.887C322.975 254.473 323.202 256.057 323.424 257.643C323.796 260.291 324.238 262.931 324.664 265.571L324.864 266.821C325.291 269.466 325.777 272.098 327.066 274.486C328.273 276.723 330.101 278.612 332.054 280.212C333.966 281.779 336.016 283.225 338.164 284.451C342.306 286.814 347.013 288.313 351.799 287.483C353.86 287.125 355.932 286.286 357.607 285.025L357.718 284.941C359.409 283.648 361.377 281.699 361.273 279.444C361.21 278.06 359.587 277.426 358.591 278.374C358.129 278.813 357.813 279.254 357.484 279.789L357.425 279.884C357.157 280.326 357.047 280.469 356.702 280.853C355.994 281.639 355.421 282.079 354.512 282.603C352.837 283.568 350.87 284.048 348.887 284.03C344.675 283.992 340.816 281.871 337.387 279.62C335.524 278.398 333.711 277.076 332.149 275.479C330.51 273.803 329.423 271.864 328.814 269.602C328.127 267.049 327.755 264.396 327.268 261.8C326.772 259.153 326.258 256.512 325.717 253.873C325.209 251.399 324.537 248.96 323.91 246.511L323.793 246.052C323.464 244.751 323.124 243.453 322.788 242.154C322.452 240.859 322.184 239.526 321.689 238.282C321.653 238.192 321.52 238.204 321.516 238.307C321.506 238.569 321.507 238.832 321.512 239.096C321.5 239.091 321.487 239.088 321.472 239.087C320.532 239.035 319.577 238.67 318.755 238.218C317.97 237.787 317.398 236.991 316.593 236.634ZM358.34 205.323C357.176 203.264 354.615 203.456 353.126 205.029C352.41 205.785 351.93 206.719 351.292 207.534C350.658 208.344 349.907 209.063 349.068 209.658C347.402 210.841 345.515 211.634 343.559 212.197C338.8 213.569 333.751 213.551 329.021 215.054C325.361 216.216 321.75 218.419 319.829 221.85C318.793 223.698 318.388 225.812 318.446 227.918C318.473 228.902 318.566 229.892 318.694 230.869L318.727 231.113C318.806 231.683 318.847 232.298 318.993 232.856C319.124 233.356 319.397 233.841 319.605 234.315C320.043 235.312 321.616 234.738 321.587 233.753C321.519 231.509 320.686 229.409 320.737 227.14C320.782 225.127 321.428 223.195 322.714 221.635C328.141 215.051 337.907 216.509 345.241 214.038C347.034 213.434 348.799 212.63 350.336 211.517C351.129 210.944 351.888 210.303 352.549 209.58C353.155 208.918 353.63 208.168 354.161 207.451L354.396 207.137C354.763 206.654 355.401 205.881 356.003 206.212C356.265 206.356 356.407 206.809 356.502 207.159L356.544 207.318C356.943 208.805 357.06 210.369 358.02 211.643C358.457 212.224 359.276 212.437 359.839 211.878L359.868 211.848C361.043 210.607 363.378 211.771 362.689 213.477L362.667 213.529C362.267 214.445 362.963 215.66 364.055 215.347L364.094 215.336C366.024 214.723 367.578 216.913 366.201 218.453L366.159 218.5C365.027 219.702 366.779 221.325 367.984 220.256C367.882 220.346 368.088 220.287 368.25 220.412C368.406 220.532 368.452 220.661 368.479 220.86C368.562 221.464 368.191 222.098 367.881 222.583C367.179 223.684 366.178 224.591 365.077 225.282C360.669 228.05 355.251 227.728 350.274 228.016C345.085 228.317 339.447 229.443 336.06 233.723C336.02 233.773 336.087 233.842 336.134 233.794C338.686 231.152 342.473 230.249 346.02 230.031C350.67 229.744 355.515 230.291 360.134 229.488C359.505 232.07 359.723 234.847 360.78 237.296C361.508 238.982 362.635 240.304 363.895 241.611L364.135 241.86C365.26 243.034 366.198 244.179 366.661 245.777C367.121 247.366 369.579 247.031 369.54 245.367C369.452 241.588 365.353 239.753 363.178 237.233C361.319 235.078 360.463 232.193 360.678 229.387C361.757 229.173 362.822 228.88 363.869 228.48C364.768 228.136 365.67 227.701 366.52 227.175L367.332 228.627C368.409 230.562 369.451 232.505 370.199 234.62C370.749 236.174 371.194 237.766 371.487 239.388C371.74 240.79 371.832 242.184 371.923 243.597C371.769 243.991 371.784 244.522 371.965 244.898C370.501 245.81 369.603 247.424 369.618 249.222C369.619 249.331 369.777 249.348 369.805 249.245C370.381 247.132 372.992 245.674 375.101 246.365C377.115 247.024 378.434 249.134 377.992 251.225C377.76 252.325 377.204 253.209 376.372 253.945L376.205 254.091C375.768 254.473 375.378 254.864 375.19 255.436C374.945 256.178 375.118 256.84 375.359 257.54L375.458 257.823C375.62 258.292 375.765 258.781 375.753 259.28L375.749 259.391C375.744 259.516 375.734 259.628 375.696 259.757C375.685 259.795 375.547 260.038 375.504 260.123L375.432 260.169V260.169L375.345 260.198V260.198C375.248 260.227 375.107 260.221 375.158 260.239L375.144 260.235C375.101 260.223 375.06 260.208 375.025 260.194L374.958 260.167C374.779 260.019 374.576 259.912 374.347 259.851L374.136 259.821V259.821C373.504 259.445 372.747 259.951 372.544 260.562C372.397 261.001 372.368 261.414 372.462 261.786C372.405 261.734 372.308 261.724 372.272 261.811L372.061 262.326C371.255 264.302 370.473 266.281 369.454 268.163C368.892 269.199 368.257 270.204 367.566 271.16C366.976 271.975 365.698 272.961 365.986 274.061C366.079 274.418 366.402 274.598 366.745 274.631C367.858 274.739 368.72 273.055 369.26 272.2L369.304 272.131C369.971 271.103 370.538 270.021 371.026 268.897C371.974 266.714 372.608 264.332 372.507 261.937C372.643 262.321 372.92 262.657 373.349 262.927C373.921 263.285 374.612 263.454 375.287 263.413C376.817 263.32 378.077 262.402 378.593 260.958C379.03 259.737 378.863 258.335 378.422 257.135L378.369 256.991C378.3 256.798 378.181 256.442 378.086 256.302L378.469 255.924V255.924C378.942 255.471 379.347 254.936 379.689 254.378C381.062 252.136 381.205 249.084 379.663 246.885C378.699 245.51 377.205 244.498 375.579 244.214C375.662 243.593 375.555 242.913 375.481 242.307L375.469 242.206C375.352 241.21 375.206 240.208 374.982 239.23C374.562 237.402 373.936 235.615 373.149 233.914C371.869 231.152 370.049 228.354 367.618 226.422C368.798 225.516 369.805 224.404 370.449 223.073C371.122 221.683 371.301 219.915 370.138 218.721C369.841 218.417 369.502 218.186 369.143 218.029C369.377 216.931 369.221 215.755 368.603 214.765C367.865 213.581 366.568 212.861 365.213 212.738C365.163 211.432 364.548 210.186 363.352 209.425C362.166 208.669 360.665 208.697 359.437 209.295C358.999 208.015 359.016 206.516 358.34 205.323ZM374.9 249.931C373.55 249.686 372.171 250.177 371.142 251.063L371.073 251.123C369.958 252.117 368.661 254.069 369.514 255.511C370.013 256.355 371.113 256.379 371.787 255.763C372.349 255.249 372.332 254.618 372.494 253.934C372.608 253.451 372.803 253.043 373.045 252.611C373.557 251.702 374.207 250.95 374.996 250.272C375.11 250.174 375.044 249.957 374.9 249.931ZM336.096 226.881C336.193 226.799 336.063 226.648 335.96 226.711C333.222 228.407 330.986 231.105 330.078 234.228C330.023 234.419 330.083 234.69 330.245 234.817L330.319 234.874C330.423 234.952 330.519 235.004 330.669 234.986C330.95 234.952 331.163 234.815 331.251 234.532C332.169 231.54 333.692 228.929 336.096 226.881ZM316.294 233.034C315.921 232.678 315.276 232.954 315.279 233.471L315.271 233.518C315.246 233.702 315.288 233.726 315.396 233.596C315.141 233.964 315.107 234.414 315.332 234.824C316.552 237.037 319.711 237.968 321.982 237.073C322.18 236.995 322.137 236.736 321.931 236.714C320.929 236.604 319.963 236.239 319.116 235.695C318.292 235.166 317.801 234.433 317.224 233.676C317.008 233.392 316.747 233.217 316.435 233.169C316.384 233.129 316.337 233.084 316.294 233.034ZM329.151 227.747L329.135 227.752C327.978 228.248 327.108 229.135 326.511 230.243C325.936 231.31 325.303 232.981 325.738 234.184C326.027 234.981 327.315 235.119 327.511 234.163C327.628 233.593 327.532 233.032 327.563 232.455C327.592 231.927 327.691 231.404 327.843 230.898C328.155 229.854 328.718 228.886 329.319 227.986C329.39 227.88 329.272 227.713 329.151 227.747V227.747ZM359.843 218.659C360.037 218.33 359.638 217.976 359.323 218.157C357.666 219.116 356.053 220.167 354.212 220.748C353.292 221.038 352.35 221.226 351.397 221.367L350.914 221.437C350.171 221.546 349.422 221.679 348.756 222.027C348.311 222.259 348.392 222.894 348.776 223.128C350.59 224.234 353.228 223.331 354.999 222.556C356.922 221.715 358.757 220.498 359.843 218.659ZM326.27 223.124C326.344 222.92 326.063 222.71 325.889 222.841C324.309 224.03 322.956 226.344 322.997 228.352C323.008 228.883 323.736 229.08 323.997 228.609C324.485 227.733 324.737 226.79 325.095 225.859C325.452 224.93 325.93 224.06 326.27 223.124ZM355.585 215.718C355.687 215.536 355.463 215.293 355.279 215.423C354.24 216.16 353.176 216.845 352.015 217.374C350.826 217.917 349.53 218.128 348.302 218.559C347.805 218.734 347.684 219.618 348.315 219.704C351.121 220.084 354.233 218.136 355.585 215.718ZM351.702 214.182C351.858 213.979 351.631 213.608 351.393 213.797C350.423 214.567 349.342 214.995 348.148 215.283C347.706 215.389 347.809 216.101 348.26 216.073C349.646 215.987 350.859 215.274 351.702 214.182Z" fill="black"/>
<path fill-rule="evenodd" clip-rule="evenodd" d="M342.315 274.171C343.277 273.907 344.253 273.241 344.895 272.754L345.062 272.627C345.615 272.199 346.175 271.73 346.517 271.112C346.625 270.912 346.738 270.689 346.768 270.479C346.785 270.356 346.773 270.237 346.695 270.138C346.517 270.17 346.347 270.194 346.183 270.21C346.106 270.217 346.031 270.224 345.977 270.239C345.776 270.294 345.585 270.376 345.395 270.457C345.367 270.468 345.339 270.48 345.312 270.492C345.163 270.555 345.016 270.619 344.869 270.682C344.441 270.868 344.015 271.053 343.569 271.203C343.248 271.311 342.901 271.389 342.551 271.468C341.643 271.673 340.7 271.868 340.188 272.69C340.054 272.906 340.037 273.134 340.097 273.345C340.17 273.601 340.351 273.831 340.573 273.989C341.076 274.346 341.694 274.342 342.315 274.171ZM334.794 267.582C335.389 268.091 336.199 268.297 337.14 267.983C339.009 267.359 341.068 266.003 342.361 264.519C342.698 264.133 342.844 263.626 342.761 263.152L342.614 262.307L343.27 262.859C343.338 262.917 343.407 262.974 343.475 263.031C343.665 263.189 343.854 263.347 344.037 263.511C344.739 264.144 345.403 264.795 346.037 265.497C346.486 265.993 346.877 266.58 347.271 267.172C347.936 268.172 348.583 269.157 349.557 269.716C349.704 269.8 349.891 269.793 350.046 269.726C350.182 269.668 350.301 269.559 350.33 269.402C350.711 267.312 348.873 265.445 347.454 264.187L347.304 264.056C345.999 262.926 343.988 261.51 342.212 261.743L342.105 262.11L341.767 262.001C341.215 261.823 340.606 262.011 340.138 262.406L339.67 262.8C338.798 263.532 337.93 264.225 336.914 264.758C336.84 264.797 336.765 264.835 336.691 264.871C336.621 264.906 336.549 264.94 336.478 264.973C336.473 264.894 336.47 264.816 336.466 264.738C336.462 264.655 336.459 264.572 336.457 264.489C336.455 264.404 336.454 264.318 336.453 264.233C336.45 263.893 336.46 263.552 336.489 263.213C336.599 261.939 336.991 260.665 337.378 259.446L337.423 259.303C337.479 259.128 337.542 258.944 337.607 258.754C337.92 257.843 338.272 256.85 338.078 256.008C337.389 256.251 336.925 256.854 336.516 257.38C335.954 258.102 335.466 258.884 335.053 259.701C334.252 261.284 333.668 263.184 333.683 264.972C333.692 265.996 334.096 266.986 334.794 267.582V267.582ZM350.619 252.87L350.61 252.836C350.336 251.879 349.159 249.849 347.78 250.239C346.919 250.483 346.818 252.121 347.163 253.681L347.177 253.745C347.408 254.71 348.261 256.722 349.516 256.366C350.786 256.006 350.881 253.845 350.619 252.87V252.87ZM330.24 258.321L330.23 258.287C329.961 257.328 329.899 254.982 331.277 254.592C332.117 254.354 333.036 255.622 333.568 257.085L333.608 257.198C333.924 258.104 334.297 260.354 333.013 260.718C331.744 261.078 330.529 259.288 330.24 258.321V258.321ZM344.139 247.701C344.328 247.671 344.518 247.647 344.707 247.625C345.261 247.559 345.817 247.511 346.374 247.481C347.433 247.424 348.499 247.428 349.558 247.474C350.548 247.518 351.536 247.604 352.523 247.691C352.576 247.695 352.628 247.7 352.681 247.704C353.029 247.735 353.381 247.78 353.734 247.826C354.27 247.895 354.81 247.965 355.345 247.981C353.545 246.558 351.177 245.797 348.991 245.392C347.744 245.161 346.46 245.053 345.191 245.026L344.486 245.015C343.448 245.004 342.328 245.039 341.588 245.858C341.296 246.181 341.167 246.592 341.202 246.987C341.236 247.374 341.427 247.745 341.774 248.002C342.076 248.226 342.397 248.311 342.706 248.284C343.047 248.254 343.37 248.089 343.635 247.834C343.879 247.745 343.955 247.73 344.031 247.718L344.139 247.701ZM329.791 251.964C330.393 251.643 331.011 251.407 331.674 251.241C331.974 251.165 332.274 251.13 332.574 251.095C333.04 251.041 333.505 250.989 333.96 250.766C334.197 250.649 334.369 250.442 334.479 250.204C334.609 249.926 334.655 249.604 334.619 249.321C334.581 249.028 334.47 248.795 334.305 248.607C334.109 248.386 333.842 248.229 333.538 248.11C332.621 247.752 331.364 248.257 330.505 248.625C329.657 248.99 328.858 249.511 328.202 250.166C327.555 250.813 327.051 251.579 326.73 252.433C326.459 253.152 326.446 253.895 326.43 254.653C327.196 253.524 328.596 252.601 329.791 251.964Z" fill="black"/>
<path fill-rule="evenodd" clip-rule="evenodd" d="M333.23 268.795C334.167 268.328 335.206 268.09 336.128 267.595C337.027 267.111 337.611 266.266 338.455 265.71C339.198 265.221 340.203 265.125 340.98 265.445C341.493 265.004 342.147 264.755 342.844 264.655C343.901 264.503 344.973 264.665 346.013 264.875C346.133 264.899 346.253 264.921 346.373 264.943C348.037 264.426 349.756 263.942 351.503 263.836C353.049 263.742 354.636 264.092 355.855 265.084C357.22 266.194 357.895 267.909 358.509 269.504C358.899 270.516 357.516 271.136 356.814 270.522C356.087 269.885 355.338 269.253 354.479 268.798C353.504 268.281 352.489 268.256 351.425 268.485C349.075 268.991 346.788 269.773 344.449 270.326C343.093 270.646 341.456 270.553 340.587 269.541C340.267 270.608 339.114 271.514 338.063 271.9C336.953 272.308 335.743 272.428 334.687 272.983C333.678 273.513 332.629 274.674 333.23 275.885C333.584 276.597 332.76 277.309 332.134 276.764C329.576 274.537 330.265 270.271 333.23 268.795" fill="black"/>
</g>
</g>
<path d="M335.013 326.127C331.207 327.02 327.343 326.904 323.62 325.688C320.031 324.514 316.728 322.225 314.372 319.275C312.517 316.953 311.232 314.339 310.455 311.474" stroke="black" stroke-width="1.5" stroke-miterlimit="10" stroke-linecap="round" stroke-linejoin="round"/>
<path d="M286.819 217.913C285.926 214.107 286.042 210.243 287.259 206.52C288.432 202.93 290.721 199.629 293.671 197.271C295.993 195.416 298.608 194.13 301.472 193.355" stroke="black" stroke-width="1.5" stroke-miterlimit="10" stroke-linecap="round" stroke-linejoin="round"/>
<path d="M374.796 175.118C378.601 174.225 382.467 174.341 386.189 175.558C389.779 176.732 393.081 179.019 395.438 181.971C397.293 184.292 398.578 186.906 399.354 189.771" stroke="black" stroke-width="1.5" stroke-miterlimit="10" stroke-linecap="round" stroke-linejoin="round"/>
<path d="M422.99 283.332C423.883 287.137 423.769 291.004 422.551 294.726C421.375 298.315 419.089 301.616 416.138 303.974C413.817 305.829 411.092 306.855 408.228 307.631" stroke="black" stroke-width="1.5" stroke-miterlimit="10" stroke-linecap="round" stroke-linejoin="round"/>
<path d="M5.38561 406.82C4.91734 411.465 5.4171 416.164 6.92585 420.586C8.54495 425.332 11.2837 429.669 14.8664 433.176C18.3827 436.617 22.6967 439.225 27.3753 440.743C29.8695 441.551 32.4246 441.975 35.0218 442.251C37.8341 442.551 40.6464 442.85 43.4594 443.149C48.4724 443.682 53.4854 444.215 58.4984 444.748C65.0452 445.445 71.592 446.141 78.1387 446.837C85.5879 447.63 93.0378 448.422 100.487 449.214C108.217 450.037 115.948 450.859 123.679 451.681C131.024 452.462 138.369 453.243 145.714 454.025C151.996 454.693 158.277 455.361 164.558 456.029C169.2 456.523 173.843 457.016 178.485 457.51C180.803 457.757 183.121 458.003 185.438 458.25C188.735 458.6 192.039 458.527 195.3 457.902C200.165 456.969 204.799 454.897 208.735 451.886C212.689 448.861 215.913 444.923 218.096 440.447C219.743 437.073 220.768 433.43 221.172 429.699C221.265 428.843 221.355 427.986 221.446 427.129C221.66 425.117 221.874 423.105 222.088 421.093C222.414 418.022 222.741 414.95 223.068 411.879C223.495 407.86 223.923 403.841 224.35 399.822C224.864 394.99 225.378 390.158 225.892 385.326C226.487 379.735 227.081 374.143 227.676 368.552C228.337 362.333 228.999 356.114 229.66 349.894C230.377 343.154 231.094 336.413 231.811 329.673C232.568 322.558 233.325 315.442 234.081 308.327C234.875 300.867 235.669 293.405 236.462 285.944C237.277 278.282 238.092 270.619 238.907 262.957C239.73 255.222 240.552 247.487 241.375 239.751C242.197 232.028 243.018 224.305 243.839 216.582C244.651 208.956 245.462 201.331 246.273 193.705C247.06 186.305 247.847 178.905 248.634 171.505C249.381 164.475 250.129 157.446 250.877 150.416C251.582 143.786 252.287 137.155 252.992 130.525C253.64 124.44 254.287 118.356 254.934 112.271C255.512 106.839 256.089 101.407 256.667 95.9751C257.162 91.326 257.656 86.6769 258.151 82.0271C258.556 78.2162 258.961 74.4052 259.367 70.5935C259.669 67.755 259.971 64.9166 260.272 62.0781C260.459 60.3222 260.646 58.567 260.833 56.8112C260.911 56.075 260.996 55.3389 261.064 54.6015C261.489 49.9418 260.882 45.202 259.297 40.7999C257.588 36.0549 254.751 31.7343 251.074 28.2832C247.538 24.9644 243.257 22.4674 238.626 21.03C236.199 20.2766 233.719 19.8974 231.202 19.6298C228.294 19.3205 225.386 19.0111 222.476 18.7017C217.392 18.1609 212.308 17.6202 207.223 17.0794C200.649 16.3802 194.075 15.681 187.502 14.9818C180.011 14.1851 172.52 13.3884 165.029 12.5917C157.302 11.7697 149.574 10.9478 141.846 10.1259C134.529 9.34763 127.211 8.56935 119.894 7.79106C113.665 7.12853 107.435 6.46592 101.206 5.80339C96.6407 5.31786 92.0751 4.83226 87.5101 4.34673C85.2941 4.11104 83.0781 3.87535 80.8621 3.63966C77.4172 3.27326 73.9521 3.39355 70.5565 4.10734C65.7223 5.12349 61.1511 7.26251 57.2705 10.3213C53.3357 13.4233 50.1514 17.4565 48.0427 22.0028C46.5437 25.2344 45.6091 28.6909 45.2262 32.2306C45.1286 33.1296 45.035 34.0284 44.9393 34.9277C44.7204 36.986 44.5015 39.0444 44.2825 41.1027C43.9519 44.2119 43.6211 47.3217 43.2904 50.4308C42.8593 54.4845 42.4282 58.5375 41.997 62.5911C41.4799 67.4529 40.9628 72.3147 40.4457 77.1765C39.8483 82.7936 39.2509 88.4108 38.6534 94.0285C37.9896 100.27 37.3257 106.511 36.6619 112.752C35.9451 119.492 35.2283 126.231 34.5116 132.97C33.7513 140.118 32.9911 147.266 32.2309 154.413C31.4362 161.884 30.6417 169.355 29.8471 176.826C29.0315 184.494 28.216 192.161 27.4004 199.829C26.5798 207.545 25.7592 215.26 24.9386 222.976C24.1151 230.718 23.2917 238.459 22.4683 246.202C21.6579 253.821 20.8476 261.439 20.0372 269.059C19.2513 276.448 18.4654 283.837 17.6795 291.226C16.9334 298.241 16.1873 305.256 15.4411 312.271C14.738 318.883 14.0347 325.494 13.3316 332.106C12.6868 338.167 12.0421 344.229 11.3974 350.291C10.824 355.682 10.2506 361.073 9.67717 366.464C9.18452 371.096 8.69188 375.728 8.19916 380.361C7.79755 384.137 7.39594 387.913 6.99433 391.689C6.69663 394.488 6.39892 397.287 6.10122 400.086C5.91942 401.795 5.73762 403.504 5.55588 405.213C5.49955 405.749 5.44258 406.284 5.38561 406.82Z" stroke="black" stroke-width="1.5" stroke-miterlimit="10" stroke-linecap="round" stroke-linejoin="round"/>
<path d="M178.039 31.5728C178.193 30.1173 177.396 28.6844 176.078 28.0476C174.761 27.4114 173.141 27.6789 172.098 28.7053C171.055 29.7316 170.761 31.3464 171.376 32.6735C171.991 34.0014 173.411 34.8218 174.869 34.6911C176.321 34.5603 177.57 33.5063 177.942 32.0967C177.987 31.9248 178.02 31.7496 178.039 31.5728Z" stroke="black" stroke-width="1.5" stroke-miterlimit="10" stroke-linecap="round" stroke-linejoin="round"/>
<path d="M164.725 30.1434C164.842 29.0371 164.281 27.97 163.379 27.588C163.016 27.4342 162.617 27.4238 162.233 27.3829C161.205 27.2736 160.178 27.1644 159.15 27.055C156.068 26.7273 152.987 26.3995 149.905 26.0718C148.299 25.901 146.482 25.7078 145.002 25.5636C142.836 25.5985 141.989 29.0023 143.857 30.2085C144.193 30.4247 144.552 30.4919 144.932 30.5338C145.763 30.626 146.597 30.7109 147.429 30.7994C150.457 31.1215 153.485 31.4436 156.514 31.7657C158.437 31.9702 160.365 32.2496 162.296 32.3806C163.222 32.4434 164.112 31.9185 164.525 30.926C164.629 30.6786 164.696 30.413 164.725 30.1434Z" stroke="black" stroke-width="1.5" stroke-miterlimit="10" stroke-linecap="round" stroke-linejoin="round"/>
<mask id="mask2_85_18788" style="mask-type:alpha" maskUnits="userSpaceOnUse" x="17" y="15" width="233" height="431">
<path d="M103.559 18.1329C97.9976 17.5413 92.436 16.9498 86.8743 16.3583C84.4016 16.0953 81.929 15.831 79.4562 15.5693C77.7367 15.387 76.0176 15.3765 74.3027 15.612C70.207 16.1743 66.3294 18.0314 63.3251 20.863C60.3209 23.6951 58.243 27.452 57.449 31.4998C57.2495 32.515 57.1538 33.5418 57.0445 34.5692C56.8767 36.1472 56.7089 37.7245 56.5411 39.3024C56.2622 41.9249 55.9832 44.548 55.7043 47.1704C55.3236 50.7497 54.9429 54.329 54.5622 57.9076C54.0912 62.3363 53.6201 66.7656 53.1491 71.1942C52.6 76.3571 52.0509 81.5194 51.5018 86.6824C50.8841 92.49 50.2663 98.2982 49.6486 104.106C48.971 110.477 48.2933 116.849 47.6156 123.22C46.8903 130.039 46.1651 136.858 45.4398 143.677C44.6798 150.823 43.9198 157.969 43.1598 165.114C42.3737 172.505 41.5876 179.896 40.8015 187.287C39.9955 194.865 39.1894 202.444 38.3834 210.022C37.5771 217.603 36.7707 225.185 35.9643 232.767C35.1638 240.293 34.3632 247.82 33.5627 255.346C32.7787 262.718 31.9946 270.09 31.2105 277.462C30.4494 284.618 29.6883 291.774 28.9272 298.93C28.2082 305.69 27.4891 312.451 26.7701 319.211C26.0995 325.516 25.4288 331.822 24.7581 338.128C24.1465 343.879 23.5349 349.629 22.9232 355.38C22.3783 360.503 21.8335 365.625 21.2886 370.748C20.8274 375.085 20.366 379.423 19.9047 383.76C19.5343 387.243 19.1639 390.725 18.7935 394.207C18.5241 396.741 18.2546 399.274 17.9852 401.808C17.8285 403.281 17.6719 404.753 17.5152 406.226C17.3731 407.562 17.2537 408.891 17.3126 410.24C17.492 414.34 18.9638 418.342 21.4854 421.586C24.0185 424.845 27.5615 427.274 31.5209 428.46C33.4166 429.027 35.3522 429.213 37.3068 429.421C40.4984 429.76 43.69 430.1 46.8815 430.439C52.0761 430.992 57.2714 431.544 62.4659 432.097C69.0772 432.8 75.6885 433.503 82.2998 434.206C89.7033 434.994 97.1074 435.781 104.511 436.569C112.074 437.373 119.638 438.178 127.202 438.982C134.338 439.741 141.475 440.5 148.611 441.259C154.744 441.912 160.876 442.564 167.009 443.216C171.46 443.689 175.911 444.163 180.362 444.636C182.563 444.87 184.763 445.104 186.963 445.338C189.986 445.66 193 445.411 195.888 444.436C199.817 443.108 203.277 440.543 205.694 437.182C207.716 434.37 208.948 431.067 209.325 427.631C209.412 426.836 209.495 426.04 209.579 425.245C209.782 423.335 209.985 421.426 210.188 419.517C210.501 416.574 210.814 413.631 211.127 410.688C211.536 406.845 211.945 403.002 212.354 399.158C212.849 394.501 213.344 389.844 213.84 385.187C214.413 379.799 214.986 374.412 215.559 369.024C216.197 363.02 216.836 357.015 217.475 351.009C218.166 344.506 218.858 338.003 219.55 331.5C220.285 324.583 221.021 317.665 221.757 310.748C222.528 303.496 223.3 296.244 224.071 288.992C224.865 281.524 225.659 274.057 226.454 266.589C227.258 259.028 228.062 251.467 228.866 243.906C229.672 236.331 230.478 228.756 231.283 221.181C232.084 213.65 232.885 206.118 233.686 198.587C234.463 191.284 235.24 183.982 236.017 176.679C236.763 169.662 237.509 162.644 238.255 155.628C238.961 148.996 239.666 142.365 240.371 135.734C241.029 129.556 241.686 123.377 242.343 117.198C242.934 111.642 243.525 106.085 244.116 100.528C244.634 95.6573 245.152 90.7868 245.67 85.9157C246.105 81.8304 246.539 77.745 246.974 73.6597C247.316 70.4447 247.657 67.2297 247.999 64.0147C248.234 61.8061 248.469 59.5975 248.704 57.3889C248.824 56.2662 248.943 55.1434 249.062 54.0201C249.315 51.6436 249.227 49.2676 248.671 46.9357C247.711 42.9084 245.48 39.2288 242.35 36.5106C239.267 33.8333 235.405 32.1733 231.348 31.7238C225.751 31.104 220.147 30.5325 214.547 29.9369C212.095 29.676 209.642 29.4126 207.189 29.1542C206.265 29.0573 205.377 29.1544 204.699 29.8545C203.592 30.9969 203.508 32.9097 203.008 34.3379C202.328 36.2824 201.333 38.1768 199.812 39.6006C197.296 41.9569 193.97 41.8164 190.711 41.4698C184.765 40.8373 178.819 40.2049 172.872 39.5724C166.837 38.9305 160.802 38.2886 154.766 37.6467C151.702 37.3208 148.638 36.9949 145.573 36.669C138.38 35.9038 131.186 35.1387 123.991 34.3735C121.553 34.1142 119.115 33.8549 116.677 33.5956C115.327 33.452 114.099 33.6538 112.806 33.2077C108.839 31.8388 106.879 28.2298 106.338 24.2599C106.038 22.0568 106.655 18.4583 103.559 18.1329Z" fill="#C4C4C4"/>
</mask>
<g mask="url(#mask2_85_18788)">
<rect x="59.2939" y="13.4133" width="193" height="416" rx="2" transform="rotate(6.07114 59.2939 13.4133)" fill="#E7ECED"/>
<path fill-rule="evenodd" clip-rule="evenodd" d="M88.7242 310.041C88.4979 310.744 88.1913 311.497 87.8849 312.169C88.8938 313.389 90.3312 315.033 91.3617 316.219C91.0213 309.056 95.2195 302.957 98.0929 296.544C97.41 295.428 94.7454 294.062 94.964 292.935C95.6565 288.747 96.5066 284.08 97.5615 278.858C100.976 262.563 104.463 245.561 102.685 228.626C102.639 226.802 102.474 224.871 100.072 224.556C89.7539 252.062 92.2818 281.221 88.8947 309.694L89.0806 309.903L88.7242 310.041ZM51.7788 540.808C45.9378 540.147 40.6891 538.476 35.735 535.736C34.2949 535.038 32.5059 534.17 32.3665 533.078C32.2689 530.122 32.8889 527.296 33.545 524.306C34.6286 519.172 35.0368 515.131 37.0702 509.701C39.1566 504.681 40.8933 500.769 40.04 495.236C40.1039 493.625 41.5368 492.141 42.5311 490.74C43.9461 488.691 44.796 486.488 45.9771 484.356C44.1911 483.831 42.3487 483.18 40.6607 482.439L40.2471 483.464C40.1562 483.69 39.9649 483.788 39.679 483.755C39.502 483.735 39.0591 483.599 39.0359 483.212C39.7738 479.157 40.6324 475.135 41.5208 471.03C50.3918 431.525 60.696 399.298 75.4506 367.665C78.9721 360.263 82.5862 352.553 83.5542 344.188C82.0852 343.694 80.4295 343.319 78.8708 343.357C68.2244 339.582 73.0102 316.68 74.2306 309.802C73.4857 309.483 72.6599 309.057 72.0699 308.545L71.7967 308.642C63.997 280.445 73.5106 236.367 79.3924 206.676C82.2434 196.087 82.158 176.366 92.307 172.124C100.324 170.267 108.171 169.601 116.429 168.713C118.017 168.025 119.913 167.745 121.64 167.379L120.918 166.072C119.971 164.355 120.474 161.253 122.073 160.325C122.974 160.478 124.144 161.533 124.962 162.059C126.5 159.622 127.959 157.056 129.138 154.052L129.424 154.192C131.289 145.528 142.816 145.286 148.885 148.94C155.438 153.572 150.814 161.844 153.28 168.473L154.606 167.068C156.388 167.236 159.885 169.996 160.692 170.974C161.306 171.35 160.606 173.333 160.608 174.163C169.742 177.35 182.508 179.388 184.294 190.256C187.006 210.619 184.008 230.84 187.396 251.208C191.471 267.87 197.901 288.421 196.314 303.076C196.17 305.84 194.779 321.408 192.579 320.526L190.911 321.853C192.583 325.345 190.409 330.042 189.189 333.815C186.333 341.789 181.567 350.19 173.969 345.352C159.899 392.171 132.691 437.926 134.517 488.069C134.573 488.367 134.358 488.663 134.063 488.502L133.717 488.292C132.741 488.477 131.532 488.443 130.522 488.553C131.004 491.791 131.101 494.946 131.142 498.473C131.634 498.847 131.294 499.652 131.263 500.159C139.176 500.674 142.655 509.422 147.785 514.597C151.134 518.347 155.019 521.996 159.333 525.444C162.923 528.061 165.878 530.927 164.828 534.983C164.884 534.982 166.089 534.933 166.148 534.935C167.259 541.082 161.257 541.647 155.139 541.679C140.218 541.49 127.978 536.78 111.602 528.627C109.479 528.638 108.2 525.336 108.161 523.191C108.046 521.744 108.993 520.392 108.567 518.8C107.004 514.187 107.247 502.471 110.74 497.599C111.893 496.536 113.324 495.596 113.385 493.542C113.569 491.498 113.608 489.44 114.007 487.457C110.555 486.724 107.186 485.579 104.279 484.013C103.716 484.16 103.133 483.835 103.172 483.155C103.644 473.769 104.1 463.506 105.03 453.948C106.683 433.104 113.725 413.381 119.64 393.654C120.624 387.222 122.524 381.116 123.632 374.695C124.731 368.611 125.483 362.618 126.529 356.537L124.485 355.844C101.997 398.76 83.2785 442.14 68.7582 485.017C68.9529 485.226 69.5424 485.504 69.4738 485.875C69.444 486.075 69.4474 486.088 69.3083 486.093C66.9519 486.295 64.6333 486.377 62.3201 486.382C62.3418 491.941 58.1891 497.891 60.6457 503.374C61.3124 504.703 61.3178 504.966 60.7267 505.762C64.2193 514.511 66.1852 521.684 67.1276 529.258L68.3834 528.418C69.9076 529.814 69.6834 532.099 69.4464 534.513C69.169 535.904 69.6873 537.454 68.5038 538.516C65.6422 541.185 56.7048 541.349 51.7788 540.808V540.808Z" fill="white"/>
<path fill-rule="evenodd" clip-rule="evenodd" d="M128.565 152.649C129.662 153.765 127.601 160.685 126.465 162.015C132.565 167.004 138.746 171.903 145.095 176.558L145.753 177.039L145.732 177.03C145.999 177.189 146.464 177.356 146.75 177.332L146.949 177.29C146.99 177.282 147.014 177.278 147.002 177.286C147.122 177.239 147.239 177.187 147.354 177.127C149.491 175.578 151.241 172.742 153.022 170.584C150.698 168.012 152.489 163.714 152.937 160.691C153.427 160.734 153.308 162.291 153.397 162.757L153.427 163.195C153.499 164.22 153.595 165.268 153.873 166.245C155.151 164.955 160.425 168.942 161.362 170.139C162.432 171.006 161.93 172.275 161.784 173.425C172.276 176.731 185.791 179.752 185.704 193.397C186.58 200.821 186.652 208.285 186.654 215.751L186.658 216.943C186.685 229.792 186.53 242.78 189.291 255.393L190.443 259.347C192.936 267.92 195.337 276.551 196.544 285.411C197.821 289.278 198.352 324.867 191.877 321.393C193.767 325.443 191.466 330.231 190.201 334.189C187.779 340.646 183.217 351.131 174.619 346.912C163.762 382.299 146.428 415.613 138.874 452.012C136.42 463.843 135.071 475.945 135.59 488.037C135.714 489.195 134.523 490.07 133.478 489.45C132.907 489.546 132.316 489.527 131.737 489.57C132.092 492.275 132.163 495.065 132.205 497.793L132.21 498.096L132.212 498.098C132.449 498.43 132.538 498.827 132.478 499.256C136.57 499.735 139.695 502.77 142.104 505.89C146.272 511.382 150.731 516.673 155.95 521.204C159.628 524.961 166.518 527.7 166.051 533.856C168.159 533.74 167.151 538.208 166.648 539.362C166.067 540.652 164.731 541.282 163.466 541.743C145.595 545.567 127.269 537.792 111.604 529.733C108.692 529.788 107.072 525.755 107.05 523.214C106.894 521.796 107.781 520.535 107.506 519.138L107.406 518.752C107.045 517.339 106.708 515.959 106.578 514.49L106.569 514.186C106.433 509.148 106.823 500.687 109.947 496.84C113.344 494.535 112.03 491.808 112.742 488.305C109.725 487.609 106.781 486.574 104.046 485.148C102.892 485.261 102.012 484.235 102.061 483.132L102.15 481.368C102.606 472.192 103.039 463.003 103.924 453.856C105.567 433.06 112.555 413.318 118.541 393.503C119.789 385.743 122.149 378.209 123.245 370.413C123.936 365.719 124.664 361.042 125.433 356.365C103.791 397.662 85.0134 440.505 70.0164 484.667C70.8537 485.387 70.7624 487.078 69.3811 487.195C67.3608 487.366 65.3346 487.463 63.3097 487.48C63.078 492.378 59.4432 498.627 61.6524 503.053L61.7405 503.23C62.1588 504.077 62.5535 505.036 61.9302 505.895C64.6676 512.825 66.9096 519.986 67.9488 527.395C70.167 526.764 70.8858 531.214 70.6465 532.765C70.2787 534.792 70.9881 538.36 69.0705 539.557C59.154 544.471 46.7146 542.125 37.0171 537.681C35.2399 536.667 33.1609 535.879 31.7049 534.415C31.0628 533.596 31.2498 532.39 31.2993 531.426L31.3374 530.928C31.5549 528.161 31.8826 525.354 32.944 522.725C33.1883 518.769 34.2264 514.851 35.4348 511.091C36.2814 508.042 38.04 505.253 38.587 502.14C39.9159 499.45 38.39 496.621 39.1979 493.874C39.7914 492.211 41.2122 490.877 42.1183 489.369L42.1821 489.261C43.0028 487.889 43.6432 486.443 44.3807 485.024C43.3142 484.692 42.267 484.314 41.2412 483.887C40.5251 485.67 37.6473 484.817 37.9469 482.951C43.7895 452.966 51.9942 423.42 62.751 394.824C68.1863 377.807 78.9657 362.587 82.3274 344.973C81.2777 344.65 80.0618 344.46 78.9971 344.462L78.8701 344.463C78.1892 344.471 77.5307 344.516 76.8492 344.094C68.2591 337.336 71.1927 319.945 72.9795 310.447C72.5782 310.26 72.1992 310.043 71.8607 309.786C71.5127 309.989 71.0242 309.947 70.8865 309.485C70.5397 308.319 70.055 307.164 69.772 305.986C63.2455 267.932 74.4819 229.885 80.8948 192.576C82.6093 184.956 83.8033 174.482 91.9423 171.098C94.6499 170.171 97.609 169.977 100.427 169.585C106.925 168.422 113.584 168.325 119.943 166.615C118.75 164.485 119.413 161.651 120.817 159.804C121.915 158.485 123.588 159.779 124.629 160.512C126.208 158.035 127.404 155.34 128.565 152.649ZM68.1465 529.121L68.1732 529.391C68.3131 530.836 68.404 532.348 68.0909 533.767C71.6315 538.103 53.231 536.515 51.2077 536.276C46.581 535.703 33.1372 532.614 33.0973 526.948L33.0899 527.083C32.9785 528.871 32.3008 532.157 33.1181 533.581C39.9898 538.211 48.3165 540.679 56.5967 540.669L56.8948 540.663C60.2041 540.585 66.5421 539.967 68.458 537.43C68.3896 534.859 69.6735 531.331 68.1465 529.121ZM57.782 502.514C53.8634 497.136 46.116 499.864 41.0936 502.046C40.6737 504.159 39.0908 504.774 38.7766 507.005C36.9972 513.725 33.8066 521.189 36.0071 528.123C44.2637 533.83 54.7537 534.696 64.4939 533.747C64.7797 533.451 65.1053 533.389 65.5683 533.317C66.0782 531.346 65.7347 529.268 65.5772 527.282C65.0895 523.088 64.3141 518.938 63.6791 514.765C61.8623 513.276 61.4475 510.532 60.6523 508.408C60.4386 507.814 60.2187 507.218 59.9843 506.625C58.4475 505.921 58.246 503.966 57.782 502.514ZM108.668 521.891C107.63 526.749 112.195 529.251 115.932 530.868C120.112 532.912 124.429 534.705 128.791 536.326C137.716 539.74 147.183 541.865 156.776 541.447L156.943 541.437C159.716 541.266 164.653 541.242 165.628 538.161L165.643 538.09C165.743 537.579 166.044 535.644 165.906 535.124C165.835 535.115 165.767 535.092 165.704 535.051C164.631 537.484 161.586 538.692 158.775 538.774C157.322 539.937 154.973 539.178 153.225 539.056C141.758 537.64 131.124 532.832 120.62 528.291C117.295 526.694 110.493 525.049 108.668 521.891ZM112.522 496.717C110.609 495.788 109.597 501.332 109.188 502.667C107.892 508.363 106.887 517.359 111.089 521.979C115.72 524.618 120.865 526.171 125.7 528.383L126.849 528.867C136.05 532.735 145.535 536.452 155.571 537.174C156.496 535.75 161.137 537.547 163.266 535.064C166.197 531.072 160.33 527.621 157.613 525.47C152.407 521.226 147.638 516.436 143.442 511.188C141.47 508.721 139.723 505.955 137.313 503.879L137.187 503.772C135.118 502.033 132.351 500.787 129.613 501.464C126.947 502.122 125.675 504.941 123.358 506.209C118.224 508.769 113.882 503.31 112.831 498.696L112.8 498.556C112.76 498.412 112.922 498.345 113.032 498.395C113.026 498.351 113.024 498.305 113.019 498.26C112.434 498.034 112.462 497.275 112.522 496.717ZM44.9326 485.192C45.1567 488.797 43.0369 491.769 41.3689 494.747C40.7803 496.78 41.8545 498.914 41.3149 500.989C45.9974 498.098 52.8442 495.84 57.6817 499.514C58.0475 496.537 59.4 493.761 60.6099 491.045L61.0982 489.969C61.4784 489.132 61.8629 488.3 62.2767 487.483C56.4322 487.431 50.5775 486.829 44.9326 485.192ZM130.118 489.632C124.984 489.756 119.828 489.578 114.77 488.72L114.352 497.571V497.571C114.335 497.933 114.154 498.166 113.913 498.283C114.34 501.222 116.414 504.031 119.273 504.98C123.731 506.079 125.02 500.143 128.987 499.469C128.439 497.731 129.213 495.617 129.345 493.808C129.546 492.396 129.778 491.001 130.118 489.632ZM112.571 495.695C112.45 495.885 112.314 496.06 112.168 496.228C112.3 496.255 112.424 496.31 112.536 496.397C112.549 496.164 112.56 495.929 112.571 495.695ZM87.3357 311.533C82.7372 312.565 77.8735 312.332 73.4477 310.649C73.5972 318.263 72.587 336.144 78.4655 341.198C79.5593 341.165 80.6487 341.211 81.7235 341.443C82.3628 341.581 82.9906 341.758 83.6206 341.93C83.8575 341.991 84.3346 342.071 84.6435 342.084L84.6961 342.085C84.6143 342.082 84.5511 342.074 84.637 342.078L84.7684 342.086L84.8359 342.088C87.0671 342.14 89.4142 339.243 91.4297 340.989C91.8056 340.54 92.326 340.283 92.7478 339.892C94.7359 337.173 93.3983 333.231 94.8541 330.291C94.5003 329.671 94.7356 328.829 95.4487 328.413C96.5801 327.587 98.6667 328.534 99.4101 327.248C99.3613 327.317 99.3681 327.231 99.3888 327.189L99.3936 327.18L99.2994 327.082C95.1981 322.817 91.2967 318.128 88.9205 312.587L88.841 312.399C88.2111 312.886 87.3262 312.36 87.3357 311.533ZM190.98 320.706C187.67 322.06 184.174 322.916 180.611 323.237C179.119 330.01 177.52 336.773 175.628 343.444L175.888 343.522C177.411 343.983 179.005 344.552 180.47 343.631C185.379 339.831 187.954 331.359 190.353 325.712L190.452 325.454C190.979 324.062 191.623 322.127 190.98 320.706ZM161.72 173.903C160.992 176.177 160.681 201.797 156.501 196.935C153.904 191.606 150.815 186.545 148.14 181.26C147.496 182.968 148.562 185.205 147.777 186.626C151.324 228.825 152.541 271.403 149.986 313.691C153.332 316.659 156.168 320.12 158.938 323.614C159.818 324.554 160.371 325.989 161.527 326.603C167.067 321.602 173.286 317.426 179.05 312.695C179.044 312.325 179.031 311.956 179.01 311.586C178.924 310.047 180.95 309.502 181.594 310.513C183.611 306.711 184.288 302.049 184.384 297.736C184.437 290.472 182.539 283.311 181.412 276.178C178.304 254.393 177.009 231.763 181.296 210.062C181.346 209.862 181.616 209.889 181.616 210.098C180.489 233.41 180.19 256.881 184.619 279.913L184.722 280.481C186.419 289.78 188.697 299.69 185.303 308.856C185.352 310.147 184.601 311.343 183.578 312.151C183.056 313.096 182.488 314.027 181.842 314.89C181.785 317.059 181.451 319.2 181.02 321.315C184.679 320.955 188.178 319.869 191.565 318.465C191.876 317.41 192.164 316.348 192.416 315.278C197.17 295.442 191.844 275.022 186.366 255.904C181.586 233.807 185.609 210.87 182.039 188.659C179.188 179.832 168.875 177.995 161.72 173.903ZM121.126 167.721L120.869 167.779C119.068 168.194 117.251 168.705 115.394 168.547C109.364 169.824 103.237 170.634 97.1471 171.58L96.5579 171.672C93.9578 172.08 91.3216 172.584 89.3801 174.511C87.5183 176.359 86.5391 178.9 85.7225 181.34C80.7474 202.902 76.83 224.808 73.0691 246.641C70.3721 264.868 68.6174 283.512 71.2705 301.847C71.6534 304.362 72.1784 306.9 72.1783 309.439C72.5174 309.482 72.8559 309.544 73.1947 309.617C73.2184 309.453 73.4641 309.508 73.4278 309.667C77.8859 310.898 82.6522 311.009 87.1119 309.73C89.694 277.556 86.7993 241.991 105.662 214.011C105.739 213.905 105.922 214.004 105.865 214.125L105.358 215.184C103.726 218.599 102.122 222.022 100.842 225.589C102.094 225.546 102.665 228.534 102.817 229.268C107.218 250.437 100.614 271.743 97.3828 292.604C107.989 302.329 118.724 311.929 129.859 321.046C135.718 318.115 141.133 314.014 147.105 311.431C150.411 267.952 146.443 224.112 146.494 180.806C144.464 182.818 142.404 184.8 140.346 186.783C137.694 189.379 135.111 192.059 132.489 194.687C131.946 195.232 130.939 194.882 130.669 194.24C127.076 185.55 125.226 176.194 121.126 167.721ZM100.727 225.907C90.9421 252.633 93.2741 281.563 90.0178 309.347C90.4641 309.842 90.1857 310.654 89.5727 310.89C89.4439 311.264 89.3 311.633 89.139 312C89.5541 312.494 89.9726 312.987 90.3963 313.475C90.7226 307.383 94.3883 302.231 96.7956 296.75C95.6563 295.475 93.3609 294.504 93.9116 292.473C94.6661 288.007 95.4886 283.551 96.3765 279.11L96.8957 276.627C100.178 260.882 103.267 244.852 101.576 228.722L101.569 228.6C101.534 227.899 101.514 226.137 100.727 225.907ZM191.299 320.577L191.242 320.6L191.351 320.716C191.331 320.672 191.314 320.624 191.299 320.577ZM152.469 306.69C151.095 304.999 153.754 302.865 155.104 304.59C156.476 306.284 153.816 308.418 152.469 306.69ZM153.495 288.544C153.256 287.608 154.367 286.293 155.303 287.003L155.332 287.026L155.348 287.009C156.235 287.678 155.753 288.802 155.116 289.433C154.425 290.001 153.741 289.156 153.495 288.544ZM154.399 267.619C152.11 263.789 157.923 262.983 156.505 267.218C156.215 268.007 154.455 269.007 154.399 267.619ZM152.649 247.526C151.42 245.619 154.658 244.464 155.064 246.621C155.274 248.052 153.444 248.713 152.649 247.526ZM171.837 205.842C172.667 206.069 177.038 205.68 175.737 207.336C176.481 216.127 180.126 227.162 172.373 233.89L172.304 233.944C171.171 234.846 169.269 237.08 167.824 235.907C164.698 232.596 160.48 230.005 158.261 225.97C157.483 222.913 158.8 219.746 158.854 216.646C159.168 212.754 158.958 208.838 159.259 204.951C159.275 204.762 159.485 204.725 159.603 204.818C163.694 204.955 167.761 205.489 171.837 205.842ZM159.709 205.106C160.866 211.289 160.183 217.683 159.432 223.872C159.388 224.514 159.43 225.148 159.708 225.673C161.979 229.065 165.495 231.428 168.316 234.351C169.67 233.67 170.787 232.73 171.815 231.637C178.097 225.094 174.163 215.515 175.074 207.539L174.373 207.461C169.463 206.911 164.514 206.285 159.709 205.106ZM153.066 226.831L153.113 226.837C154.994 227.055 154.2 230.196 152.475 229.558C151.018 229.033 151.517 226.675 153.066 226.831V226.831ZM151.223 210.127C150.171 207.757 154.57 207.385 153.826 209.9L153.848 209.796C153.852 209.776 153.856 209.758 153.86 209.742L153.8 209.979V209.979C153.514 211.097 151.183 211.657 151.223 210.127ZM150.423 191.392C151.654 191.211 152.345 192.991 151.234 193.627C149.58 194.606 148.592 191.59 150.423 191.392ZM124.067 162.032L123.937 161.881C122.539 160.27 121.451 159.421 120.774 162.303C120.372 163.701 120.375 165.521 121.644 166.519C127.444 173.725 128.874 183.237 132.182 191.667C136.506 187.49 140.588 183.094 144.798 178.809C140.083 175.146 135.315 171.5 130.684 167.71C128.476 165.85 126.071 164.113 124.067 162.032ZM156.525 169.573C154.196 172.561 151.988 175.827 149.16 178.384C148.804 178.669 148.444 178.886 148.079 179.042C148.586 178.955 149.193 179.396 149.07 179.927C152.305 183.98 154.807 188.551 157.17 193.158C158.518 186.134 158.287 178.901 159.493 171.849C158.664 170.892 157.628 170.184 156.525 169.573Z" fill="black"/>
<path fill-rule="evenodd" clip-rule="evenodd" d="M178.601 111.928C178.759 110.067 176.149 108.99 175.162 110.74C175.108 110.784 175.05 110.825 174.996 110.862C175.263 110.68 174.714 110.969 174.626 111.002C174.551 111.031 174.475 111.055 174.398 111.081C174.43 106.323 173.303 101.062 169.174 98.2038C163.38 94.5327 156.36 93.1484 149.599 92.6813C146.168 92.4973 142.171 92.5964 139.339 90.5277C138.456 89.8832 137.796 88.9512 136.767 88.498C133.505 87.2053 131.587 90.4908 131.722 93.3869C130.286 93.2355 128.772 93.8694 128.004 95.1086C127.552 95.8424 127.463 96.6794 127.062 97.4217C125.875 99.285 124.337 100.547 124.845 103.026C123.299 104.431 123.812 106.88 124.747 108.498C125.205 109.337 125.77 110.156 126.072 111.071C126.365 111.947 125.668 112.867 125.252 113.62C122.194 119.065 121.618 125.378 122.238 131.49C119.508 132.325 118.327 135.769 119.771 138.185C120.266 139.037 120.945 139.41 121.698 139.985C122.656 140.664 121.566 142.825 121.77 143.951C121.913 146.66 124.146 148.572 126.734 147.116C128.278 147.059 129.001 151.617 129.978 152.851C130.555 153.822 131.218 154.71 131.954 155.544C133.683 162.11 145.837 166.718 152.066 167.056C158.622 167.111 163.618 162.1 167.812 157.625C169.976 155.233 171.523 152.456 172.325 149.327C173.131 146.182 173.3 142.959 173.363 139.726C173.503 132.858 173.618 122.954 173.754 116.011C176.098 116.083 178.399 114.34 178.601 111.928V111.928Z" fill="white"/>
<path fill-rule="evenodd" clip-rule="evenodd" d="M128.451 102.103C128.448 102.113 128.45 102.12 128.451 102.131C128.452 102.128 128.453 102.127 128.454 102.123C128.453 102.115 128.452 102.11 128.451 102.103" fill="#4F66AF"/>
<path fill-rule="evenodd" clip-rule="evenodd" d="M128.439 102.202C128.432 102.192 128.421 102.184 128.41 102.174C128.409 102.174 128.409 102.174 128.409 102.175C128.419 102.184 128.429 102.193 128.439 102.202" fill="#4F66AF"/>
<path fill-rule="evenodd" clip-rule="evenodd" d="M178.131 112.765C178.966 112.217 180.101 112.937 179.724 113.952C179.314 115.057 178.008 115.696 176.95 116.049C175.861 116.412 174.843 116.39 173.72 116.21L173.706 116.205V116.205C173.877 117.498 173.907 118.826 174.003 120.118C174.125 121.757 174.242 123.397 174.355 125.037C174.464 126.622 174.648 128.218 174.691 129.803C174.733 131.404 174.766 133.004 174.805 134.605C174.869 137.278 174.861 139.955 174.87 142.629L174.876 143.895C174.885 146.574 174.833 149.25 173.95 151.815C173.121 154.219 171.625 156.38 169.958 158.276C168.326 160.133 166.539 161.893 164.619 163.452C160.915 166.457 156.514 168.701 151.657 168.66C149.566 168.641 147.385 168.151 145.527 167.178L145.404 167.113C143.525 166.113 141.267 164.509 141.003 162.267C140.84 160.892 142.338 160.003 143.476 160.775C144.003 161.134 144.386 161.518 144.798 161.992L144.871 162.077C145.207 162.469 145.34 162.592 145.742 162.915C146.569 163.576 147.205 163.916 148.187 164.286C149.997 164.966 152.016 165.12 153.97 164.779C158.119 164.057 161.582 161.337 164.6 158.559C166.239 157.05 167.813 155.451 169.095 153.621C170.44 151.702 171.197 149.612 171.43 147.281C171.693 144.65 171.629 141.972 171.688 139.331C171.747 136.639 171.825 133.949 171.93 131.258C172.029 128.734 172.296 126.218 172.516 123.7L172.557 123.228C172.67 121.891 172.795 120.555 172.916 119.218C173.036 117.886 173.084 116.528 173.371 115.219C173.391 115.124 173.524 115.115 173.545 115.216C173.597 115.473 173.639 115.733 173.677 115.993C173.688 115.987 173.7 115.981 173.715 115.978C174.634 115.774 175.517 115.259 176.255 114.68C176.959 114.126 177.394 113.248 178.131 112.765ZM131.849 88.6554C132.664 86.4346 135.222 86.208 136.946 87.5175C137.776 88.1472 138.401 88.9907 139.163 89.6911C139.921 90.3875 140.779 90.975 141.703 91.4261C143.539 92.3221 145.53 92.7979 147.551 93.036C152.471 93.6156 157.449 92.778 162.361 93.4913C166.161 94.0432 170.081 95.6303 172.535 98.7032C173.857 100.359 174.601 102.379 174.886 104.466C175.019 105.441 175.089 106.433 175.12 107.418L175.127 107.664C175.142 108.239 175.202 108.853 175.149 109.427C175.101 109.942 174.91 110.465 174.782 110.966C174.512 112.021 172.866 111.711 172.735 110.734C172.438 108.509 172.918 106.302 172.499 104.07C172.127 102.092 171.176 100.291 169.653 98.9599C163.228 93.3462 153.83 96.3716 146.19 95.1254C144.323 94.8208 142.451 94.3145 140.754 93.4667C139.878 93.0295 139.025 92.5206 138.256 91.915C137.55 91.3603 136.96 90.697 136.319 90.0756L136.036 89.8048C135.595 89.3878 134.84 88.7282 134.3 89.1526C134.065 89.3373 133.999 89.8078 133.962 90.1685L133.946 90.3317C133.794 91.864 133.933 93.4264 133.193 94.8396C132.856 95.4841 132.082 95.827 131.436 95.367L131.402 95.3425C130.042 94.3084 127.927 95.8365 128.884 97.4082L128.914 97.4558C129.458 98.2943 128.968 99.6068 127.84 99.4754L127.799 99.4701C125.796 99.1793 124.618 101.593 126.227 102.889L126.277 102.928C127.588 103.93 126.124 105.816 124.761 104.957C124.876 105.03 124.664 105.005 124.524 105.155C124.389 105.298 124.365 105.433 124.371 105.634C124.387 106.243 124.857 106.809 125.241 107.237C126.113 108.209 127.248 108.941 128.446 109.444C133.245 111.459 138.539 110.26 143.497 109.736C148.666 109.189 154.412 109.384 158.449 113.056C158.497 113.1 158.442 113.179 158.388 113.138C155.44 110.947 151.557 110.671 148.022 111.032C143.387 111.505 138.695 112.832 134.007 112.791C135.047 115.236 135.284 118.011 134.639 120.6C134.194 122.382 133.297 123.87 132.267 125.364L132.07 125.648C131.151 126.99 130.411 128.272 130.214 129.924C130.019 131.566 127.539 131.636 127.307 129.988C126.78 126.244 130.526 123.768 132.263 120.927C133.747 118.499 134.122 115.514 133.454 112.779C132.355 112.743 131.256 112.628 130.158 112.403C129.215 112.21 128.254 111.927 127.33 111.547L126.765 113.111C126.016 115.195 125.305 117.282 124.91 119.49C124.62 121.113 124.44 122.756 124.414 124.405C124.392 125.828 124.529 127.219 124.668 128.628C124.884 128.991 124.956 129.519 124.838 129.919C126.431 130.58 127.579 132.028 127.857 133.804C127.874 133.912 127.721 133.954 127.676 133.857C126.765 131.865 123.951 130.851 121.982 131.876C120.102 132.854 119.144 135.15 119.919 137.142C120.328 138.189 121.02 138.971 121.96 139.562L122.149 139.679C122.642 139.984 123.09 140.307 123.369 140.841C123.731 141.533 123.668 142.214 123.544 142.944L123.492 143.24C123.409 143.729 123.345 144.235 123.438 144.725L123.46 144.834C123.485 144.957 123.514 145.066 123.571 145.187C123.589 145.222 123.765 145.439 123.821 145.517L123.9 145.551V145.551L123.99 145.565V145.565C124.091 145.578 124.228 145.549 124.181 145.574L124.194 145.569C124.235 145.549 124.273 145.528 124.305 145.509L124.366 145.471C124.52 145.296 124.702 145.157 124.918 145.06L125.121 144.996V144.996C125.684 144.522 126.513 144.899 126.813 145.468C127.029 145.878 127.125 146.28 127.093 146.663C127.141 146.602 127.235 146.577 127.284 146.656L127.576 147.13C128.693 148.949 129.786 150.775 131.097 152.466C131.82 153.398 132.61 154.286 133.447 155.116C134.162 155.825 135.583 156.59 135.478 157.722C135.444 158.09 135.154 158.32 134.822 158.408C133.74 158.696 132.617 157.173 131.945 156.418L131.89 156.357C131.065 155.451 130.329 154.475 129.665 153.446C128.375 151.446 127.362 149.198 127.073 146.819C127.001 147.22 126.783 147.597 126.403 147.932C125.897 148.379 125.243 148.658 124.57 148.727C123.045 148.884 121.653 148.184 120.908 146.842C120.279 145.709 120.216 144.299 120.456 143.042L120.485 142.892C120.522 142.69 120.581 142.319 120.652 142.166L120.212 141.856V141.856C119.673 141.485 119.186 141.023 118.758 140.528C117.039 138.539 116.402 135.551 117.565 133.131C118.293 131.617 119.602 130.376 121.161 129.831C120.978 129.232 120.973 128.544 120.948 127.933L120.943 127.832C120.897 126.83 120.878 125.818 120.94 124.816C121.057 122.945 121.384 121.079 121.885 119.273C122.698 116.34 124.04 113.283 126.125 110.982C124.813 110.28 123.638 109.346 122.786 108.138C121.897 106.875 121.432 105.16 122.386 103.793C122.629 103.444 122.927 103.162 123.256 102.948C122.846 101.903 122.809 100.718 123.257 99.64C123.793 98.3515 124.956 97.431 126.274 97.089C126.11 95.7921 126.515 94.4629 127.571 93.5172C128.618 92.5791 130.104 92.3626 131.413 92.7526C131.637 91.4184 131.377 89.9428 131.849 88.6554ZM122.76 135.362C124.053 134.901 125.493 135.161 126.652 135.868L126.73 135.916C127.992 136.716 129.589 138.43 128.982 139.992C128.627 140.906 127.545 141.109 126.78 140.611C126.141 140.194 126.056 139.569 125.785 138.921C125.594 138.462 125.335 138.091 125.026 137.705C124.373 136.891 123.609 136.254 122.72 135.714C122.592 135.635 122.622 135.411 122.76 135.362ZM157.302 106.312C157.193 106.246 157.297 106.076 157.409 106.122C160.386 107.35 163.03 109.649 164.434 112.583C164.52 112.762 164.504 113.039 164.365 113.191L164.301 113.259C164.211 113.353 164.125 113.42 163.974 113.427C163.692 113.438 163.458 113.338 163.326 113.073C161.934 110.27 160.006 107.941 157.302 106.312ZM177.84 109.164C178.151 108.752 178.832 108.919 178.913 109.43L178.928 109.476C178.984 109.653 178.946 109.684 178.818 109.572C179.129 109.894 179.237 110.333 179.08 110.774C178.237 113.155 175.271 114.588 172.885 114.074C172.676 114.029 172.677 113.767 172.877 113.711C173.848 113.44 174.741 112.923 175.489 112.248C176.215 111.592 176.581 110.789 177.027 109.949C177.194 109.633 177.424 109.418 177.723 109.32C177.767 109.272 177.806 109.221 177.84 109.164ZM164.295 106.037L164.312 106.04C165.534 106.341 166.537 107.075 167.306 108.071C168.046 109.03 168.943 110.576 168.709 111.833C168.553 112.667 167.304 113.012 166.956 112.102C166.749 111.558 166.752 110.988 166.627 110.425C166.513 109.908 166.33 109.408 166.098 108.933C165.62 107.955 164.908 107.091 164.168 106.3C164.081 106.207 164.17 106.023 164.295 106.037V106.037ZM132.535 102.058C132.289 101.765 132.626 101.351 132.966 101.479C134.757 102.155 136.519 102.931 138.43 103.205C139.384 103.341 140.345 103.374 141.308 103.357L141.796 103.348C142.546 103.335 143.308 103.345 144.022 103.58C144.498 103.736 144.522 104.376 144.181 104.669C142.571 106.055 139.82 105.593 137.947 105.116C135.913 104.599 133.904 103.696 132.535 102.058ZM166.386 101.007C166.28 100.818 166.524 100.565 166.716 100.666C168.468 101.583 170.18 103.646 170.466 105.634C170.541 106.159 169.855 106.472 169.521 106.05C168.897 105.265 168.495 104.375 167.99 103.515C167.488 102.657 166.874 101.876 166.386 101.007ZM136.258 98.4648C136.128 98.3012 136.309 98.0252 136.512 98.124C137.657 98.6822 138.818 99.1844 140.049 99.5185C141.311 99.8606 142.624 99.8582 143.906 100.084C144.424 100.176 144.688 101.029 144.079 101.216C141.372 102.047 137.985 100.631 136.258 98.4648ZM139.84 96.318C139.652 96.143 139.816 95.7397 140.082 95.8875C141.164 96.4899 142.3 96.7366 143.525 96.8261C143.978 96.859 143.992 97.5782 143.543 97.624C142.161 97.7646 140.849 97.2579 139.84 96.318Z" fill="black"/>
<path fill-rule="evenodd" clip-rule="evenodd" d="M158.853 153.984C157.861 153.879 156.788 153.381 156.076 153.005L155.891 152.906C155.275 152.574 154.647 152.202 154.209 151.648C154.069 151.469 153.922 151.266 153.858 151.064C153.821 150.946 153.814 150.826 153.875 150.716C154.056 150.719 154.228 150.715 154.391 150.704C154.469 150.698 154.544 150.692 154.6 150.698C154.807 150.72 155.008 150.77 155.21 150.819C155.239 150.826 155.268 150.833 155.297 150.84C155.454 150.878 155.61 150.917 155.766 150.956C156.218 151.07 156.668 151.183 157.132 151.258C157.467 151.313 157.822 151.334 158.18 151.355C159.109 151.409 160.072 151.449 160.71 152.177C160.877 152.367 160.931 152.59 160.906 152.807C160.876 153.072 160.735 153.328 160.541 153.52C160.103 153.955 159.493 154.051 158.853 153.984ZM165.202 146.26C164.698 146.858 163.932 147.193 162.953 147.036C161.007 146.725 158.755 145.721 157.238 144.467C156.843 144.141 156.616 143.665 156.621 143.183L156.629 142.325L156.072 142.977C156.013 143.045 155.955 143.113 155.897 143.18C155.736 143.367 155.575 143.553 155.421 143.745C154.831 144.483 154.282 145.234 153.77 146.029C153.408 146.592 153.117 147.234 152.825 147.883C152.331 148.977 151.852 150.054 150.982 150.764C150.851 150.872 150.665 150.894 150.502 150.854C150.358 150.819 150.223 150.731 150.169 150.58C149.453 148.58 150.964 146.439 152.159 144.967L152.285 144.814C153.39 143.486 155.143 141.762 156.934 141.704L157.099 142.049L157.415 141.886C157.931 141.621 158.562 141.707 159.088 142.021L159.614 142.334C160.593 142.914 161.562 143.457 162.652 143.818C162.731 143.844 162.811 143.869 162.89 143.893C162.965 143.916 163.041 143.938 163.117 143.959C163.109 143.88 163.099 143.803 163.09 143.725C163.08 143.643 163.07 143.561 163.059 143.478C163.047 143.393 163.034 143.309 163.021 143.225C162.968 142.889 162.904 142.554 162.82 142.224C162.504 140.985 161.91 139.791 161.33 138.652L161.262 138.518C161.179 138.354 161.087 138.183 160.992 138.006C160.535 137.158 160.026 136.235 160.081 135.373C160.8 135.501 161.356 136.02 161.845 136.473C162.517 137.094 163.126 137.787 163.666 138.525C164.714 139.957 165.598 141.737 165.874 143.504C166.032 144.516 165.794 145.558 165.202 146.26V146.26ZM147.196 134.315L147.2 134.28C147.314 133.291 148.146 131.097 149.57 131.258C150.459 131.359 150.825 132.958 150.739 134.554L150.735 134.619C150.664 135.609 150.15 137.733 148.853 137.585C147.542 137.437 147.096 135.32 147.196 134.315V134.315ZM168.19 136.381L168.194 136.346C168.304 135.356 167.985 133.032 166.561 132.87C165.694 132.772 164.993 134.173 164.705 135.703L164.684 135.821C164.52 136.766 164.517 139.047 165.844 139.198C167.154 139.346 168.063 137.383 168.19 136.381V136.381ZM152.75 128.162C152.559 128.162 152.368 128.17 152.177 128.179C151.619 128.204 151.063 128.247 150.509 128.308C149.455 128.423 148.403 128.601 147.367 128.818C146.396 129.022 145.436 129.268 144.476 129.514C144.425 129.527 144.374 129.54 144.322 129.553C143.983 129.64 143.644 129.742 143.303 129.844C142.785 130 142.264 130.156 141.739 130.259C143.284 128.563 145.497 127.427 147.588 126.672C148.781 126.241 150.03 125.926 151.277 125.694L151.972 125.568C152.993 125.388 154.105 125.241 154.967 125.928C155.308 126.2 155.502 126.585 155.532 126.98C155.561 127.367 155.433 127.765 155.133 128.074C154.871 128.344 154.568 128.48 154.259 128.504C153.918 128.53 153.572 128.42 153.269 128.211C153.014 128.162 152.937 128.161 152.859 128.161L152.75 128.162ZM167.6 130.036C166.954 129.817 166.306 129.685 165.625 129.628C165.317 129.603 165.014 129.617 164.713 129.631C164.244 129.653 163.778 129.678 163.292 129.531C163.039 129.455 162.836 129.279 162.688 129.062C162.516 128.808 162.417 128.498 162.407 128.213C162.396 127.918 162.468 127.669 162.601 127.458C162.758 127.207 162.996 127.009 163.276 126.843C164.123 126.34 165.446 126.634 166.353 126.858C167.249 127.079 168.122 127.464 168.876 128.004C169.619 128.537 170.241 129.211 170.697 130.001C171.081 130.667 171.215 131.398 171.354 132.143C170.414 131.154 168.883 130.471 167.6 130.036Z" fill="black"/>
<path fill-rule="evenodd" clip-rule="evenodd" d="M166.941 147.202C165.94 146.894 164.877 146.828 163.887 146.489C162.921 146.158 162.207 145.419 161.284 145.008C160.472 144.646 159.464 144.715 158.749 145.156C158.172 144.805 157.486 144.666 156.782 144.68C155.714 144.702 154.682 145.036 153.691 145.412C153.576 145.455 153.461 145.496 153.347 145.538C151.621 145.298 149.846 145.1 148.105 145.279C146.564 145.437 145.055 146.042 144.013 147.218C142.847 148.536 142.459 150.337 142.113 152.011C141.893 153.073 143.358 153.459 143.951 152.739C144.565 151.993 145.202 151.247 145.975 150.659C146.853 149.99 147.85 149.801 148.938 149.854C151.338 149.971 153.723 150.371 156.12 150.536C157.51 150.632 159.11 150.274 159.803 149.134C160.292 150.135 161.577 150.842 162.677 151.052C163.838 151.274 165.052 151.196 166.184 151.571C167.266 151.93 168.489 152.906 168.093 154.199C167.86 154.958 168.788 155.527 169.318 154.887C171.48 152.274 170.106 148.177 166.941 147.202" fill="black"/>
</g>
<path d="M103.559 18.1329C97.9976 17.5413 92.436 16.9498 86.8743 16.3583C84.4016 16.0953 81.929 15.831 79.4562 15.5693C77.7367 15.387 76.0176 15.3765 74.3027 15.612C70.207 16.1743 66.3294 18.0314 63.3251 20.863C60.3209 23.6951 58.243 27.452 57.449 31.4998C57.2495 32.515 57.1538 33.5418 57.0445 34.5692C56.8767 36.1472 56.7089 37.7245 56.5411 39.3024C56.2622 41.9249 55.9832 44.548 55.7043 47.1704C55.3236 50.7497 54.9429 54.329 54.5622 57.9076C54.0912 62.3363 53.6201 66.7656 53.1491 71.1942C52.6 76.3571 52.0509 81.5194 51.5018 86.6824C50.8841 92.49 50.2663 98.2982 49.6486 104.106C48.971 110.477 48.2933 116.849 47.6156 123.22C46.8903 130.039 46.1651 136.858 45.4398 143.677C44.6798 150.823 43.9198 157.969 43.1598 165.114C42.3737 172.505 41.5876 179.896 40.8015 187.287C39.9955 194.865 39.1894 202.444 38.3834 210.022C37.5771 217.603 36.7707 225.185 35.9643 232.767C35.1638 240.293 34.3632 247.82 33.5627 255.346C32.7787 262.718 31.9946 270.09 31.2105 277.462C30.4494 284.618 29.6883 291.774 28.9272 298.93C28.2082 305.69 27.4891 312.451 26.7701 319.211C26.0995 325.516 25.4288 331.822 24.7581 338.128C24.1465 343.879 23.5349 349.629 22.9232 355.38C22.3783 360.503 21.8335 365.625 21.2886 370.748C20.8274 375.085 20.366 379.423 19.9047 383.76C19.5343 387.243 19.1639 390.725 18.7935 394.207C18.5241 396.741 18.2546 399.274 17.9852 401.808C17.8285 403.281 17.6719 404.753 17.5152 406.226C17.3731 407.562 17.2537 408.891 17.3126 410.24C17.492 414.34 18.9638 418.342 21.4854 421.586C24.0185 424.845 27.5615 427.274 31.5209 428.46C33.4166 429.027 35.3522 429.213 37.3068 429.421C40.4984 429.76 43.69 430.1 46.8815 430.439C52.0761 430.992 57.2714 431.544 62.4659 432.097C69.0772 432.8 75.6885 433.503 82.2998 434.206C89.7033 434.994 97.1074 435.781 104.511 436.569C112.074 437.373 119.638 438.178 127.202 438.982C134.338 439.741 141.475 440.5 148.611 441.259C154.744 441.912 160.876 442.564 167.009 443.216C171.46 443.689 175.911 444.163 180.362 444.636C182.563 444.87 184.763 445.104 186.963 445.338C189.986 445.66 193 445.411 195.888 444.436C199.817 443.108 203.277 440.543 205.694 437.182C207.716 434.37 208.948 431.067 209.325 427.631C209.412 426.836 209.495 426.04 209.579 425.245C209.782 423.335 209.985 421.426 210.188 419.517C210.501 416.574 210.814 413.631 211.127 410.688C211.536 406.845 211.945 403.002 212.354 399.158C212.849 394.501 213.344 389.844 213.84 385.187C214.413 379.799 214.986 374.412 215.559 369.024C216.197 363.02 216.836 357.015 217.475 351.009C218.166 344.506 218.858 338.003 219.55 331.5C220.285 324.583 221.021 317.665 221.757 310.748C222.528 303.496 223.3 296.244 224.071 288.992C224.865 281.524 225.659 274.057 226.454 266.589C227.258 259.028 228.062 251.467 228.866 243.906C229.672 236.331 230.478 228.756 231.283 221.181C232.084 213.65 232.885 206.118 233.686 198.587C234.463 191.284 235.24 183.982 236.017 176.679C236.763 169.662 237.509 162.644 238.255 155.628C238.961 148.996 239.666 142.365 240.371 135.734C241.029 129.556 241.686 123.377 242.343 117.198C242.934 111.642 243.525 106.085 244.116 100.528C244.634 95.6573 245.152 90.7868 245.67 85.9157C246.105 81.8304 246.539 77.745 246.974 73.6597C247.316 70.4447 247.657 67.2297 247.999 64.0147C248.234 61.8061 248.469 59.5975 248.704 57.3889C248.824 56.2662 248.943 55.1434 249.062 54.0201C249.315 51.6436 249.227 49.2676 248.671 46.9357C247.711 42.9084 245.48 39.2288 242.35 36.5106C239.267 33.8333 235.405 32.1733 231.348 31.7238C225.751 31.104 220.147 30.5325 214.547 29.9369C212.095 29.676 209.642 29.4126 207.189 29.1542C206.265 29.0573 205.377 29.1544 204.699 29.8545C203.592 30.9969 203.508 32.9097 203.008 34.3379C202.328 36.2824 201.333 38.1768 199.812 39.6006C197.296 41.9569 193.97 41.8164 190.711 41.4698C184.765 40.8373 178.819 40.2049 172.872 39.5724C166.837 38.9305 160.802 38.2886 154.766 37.6467C151.702 37.3208 148.638 36.9949 145.573 36.669C138.38 35.9038 131.186 35.1387 123.991 34.3735C121.553 34.1142 119.115 33.8549 116.677 33.5956C115.327 33.452 114.099 33.6538 112.806 33.2077C108.839 31.8388 106.879 28.2298 106.338 24.2599C106.038 22.0568 106.655 18.4583 103.559 18.1329Z" stroke="black" stroke-width="1.5" stroke-miterlimit="10" stroke-linecap="round" stroke-linejoin="round"/>
</svg>
